<?xml version="1.0" encoding="UTF-8" standalone="no"?>
<!DOCTYPE svg PUBLIC "-//W3C//DTD SVG 1.1//EN"
 "http://www.w3.org/Graphics/SVG/1.1/DTD/svg11.dtd">
<!-- Generated by graphviz version 2.40.1 (20161225.0304)
 -->
<!-- Title: G Pages: 1 -->
<svg width="110pt" height="66pt"
 viewBox="0.00 0.00 110.20 66.20" xmlns="http://www.w3.org/2000/svg" xmlns:xlink="http://www.w3.org/1999/xlink">
<g id="graph0" class="graph" transform="scale(1 1) rotate(0) translate(21.6 44.6)">
<title>G</title>
<polygon fill="#111111" stroke="transparent" points="-21.6,21.6 -21.6,-44.6 88.6,-44.6 88.6,21.6 -21.6,21.6"/>
<!-- index.ts -->
<g id="node1" class="node">
<title>index.ts</title>
<path fill="none" stroke="#cfffac" d="M59.3333,-23C59.3333,-23 7.6667,-23 7.6667,-23 3.8333,-23 0,-19.1667 0,-15.3333 0,-15.3333 0,-7.6667 0,-7.6667 0,-3.8333 3.8333,0 7.6667,0 7.6667,0 59.3333,0 59.3333,0 63.1667,0 67,-3.8333 67,-7.6667 67,-7.6667 67,-15.3333 67,-15.3333 67,-19.1667 63.1667,-23 59.3333,-23"/>
<text text-anchor="middle" x="33.5" y="-7.8" font-family="Arial" font-size="14.00" fill="#cfffac">index.ts</text>
</g>
</g>
</svg>
