<?xml version="1.0" encoding="UTF-8" standalone="no"?>
<!DOCTYPE svg PUBLIC "-//W3C//DTD SVG 1.1//EN"
 "http://www.w3.org/Graphics/SVG/1.1/DTD/svg11.dtd">
<!-- Generated by graphviz version 2.40.1 (20161225.0304)
 -->
<!-- Title: G Pages: 1 -->
<svg width="254pt" height="66pt"
 viewBox="0.00 0.00 254.20 66.20" xmlns="http://www.w3.org/2000/svg" xmlns:xlink="http://www.w3.org/1999/xlink">
<g id="graph0" class="graph" transform="scale(1 1) rotate(0) translate(21.6 44.6)">
<title>G</title>
<polygon fill="#111111" stroke="transparent" points="-21.6,21.6 -21.6,-44.6 232.6,-44.6 232.6,21.6 -21.6,21.6"/>
<!-- get&#45;account.ts -->
<g id="node1" class="node">
<title>get&#45;account.ts</title>
<path fill="none" stroke="#cfffac" d="M203.3333,-23C203.3333,-23 110.6667,-23 110.6667,-23 106.8333,-23 103,-19.1667 103,-15.3333 103,-15.3333 103,-7.6667 103,-7.6667 103,-3.8333 106.8333,0 110.6667,0 110.6667,0 203.3333,0 203.3333,0 207.1667,0 211,-3.8333 211,-7.6667 211,-7.6667 211,-15.3333 211,-15.3333 211,-19.1667 207.1667,-23 203.3333,-23"/>
<text text-anchor="middle" x="157" y="-7.8" font-family="Arial" font-size="14.00" fill="#cfffac">get&#45;account.ts</text>
</g>
<!-- index.ts -->
<g id="node2" class="node">
<title>index.ts</title>
<path fill="none" stroke="#c6c5fe" d="M59.3333,-23C59.3333,-23 7.6667,-23 7.6667,-23 3.8333,-23 0,-19.1667 0,-15.3333 0,-15.3333 0,-7.6667 0,-7.6667 0,-3.8333 3.8333,0 7.6667,0 7.6667,0 59.3333,0 59.3333,0 63.1667,0 67,-3.8333 67,-7.6667 67,-7.6667 67,-15.3333 67,-15.3333 67,-19.1667 63.1667,-23 59.3333,-23"/>
<text text-anchor="middle" x="33.5" y="-7.8" font-family="Arial" font-size="14.00" fill="#c6c5fe">index.ts</text>
</g>
<!-- index.ts&#45;&gt;get&#45;account.ts -->
<g id="edge1" class="edge">
<title>index.ts&#45;&gt;get&#45;account.ts</title>
<path fill="none" stroke="#757575" d="M67.2469,-11.5C75.152,-11.5 83.8339,-11.5 92.5873,-11.5"/>
<polygon fill="#757575" stroke="#757575" points="92.8536,-15.0001 102.8536,-11.5 92.8535,-8.0001 92.8536,-15.0001"/>
</g>
</g>
</svg>
