<?xml version="1.0" encoding="UTF-8" standalone="no"?>
<!DOCTYPE svg PUBLIC "-//W3C//DTD SVG 1.1//EN"
 "http://www.w3.org/Graphics/SVG/1.1/DTD/svg11.dtd">
<!-- Generated by graphviz version 2.40.1 (20161225.0304)
 -->
<!-- Title: G Pages: 1 -->
<svg width="1185pt" height="2375pt"
 viewBox="0.00 0.00 1185.20 2375.43" xmlns="http://www.w3.org/2000/svg" xmlns:xlink="http://www.w3.org/1999/xlink">
<g id="graph0" class="graph" transform="scale(1 1) rotate(0) translate(21.6 2353.8273)">
<title>G</title>
<polygon fill="#111111" stroke="transparent" points="-21.6,21.6 -21.6,-2353.8273 1163.6,-2353.8273 1163.6,21.6 -21.6,21.6"/>
<!-- index.js -->
<g id="node1" class="node">
<title>index.js</title>
<path fill="none" stroke="#c6c5fe" d="M58.3333,-446.2273C58.3333,-446.2273 7.6667,-446.2273 7.6667,-446.2273 3.8333,-446.2273 0,-442.3939 0,-438.5606 0,-438.5606 0,-430.8939 0,-430.8939 0,-427.0606 3.8333,-423.2273 7.6667,-423.2273 7.6667,-423.2273 58.3333,-423.2273 58.3333,-423.2273 62.1667,-423.2273 66,-427.0606 66,-430.8939 66,-430.8939 66,-438.5606 66,-438.5606 66,-442.3939 62.1667,-446.2273 58.3333,-446.2273"/>
<text text-anchor="middle" x="33" y="-431.0273" font-family="Arial" font-size="14.00" fill="#c6c5fe">index.js</text>
</g>
<!-- modules/index.js -->
<g id="node2" class="node">
<title>modules/index.js</title>
<path fill="none" stroke="#c6c5fe" d="M219.3333,-651.2273C219.3333,-651.2273 109.6667,-651.2273 109.6667,-651.2273 105.8333,-651.2273 102,-647.3939 102,-643.5606 102,-643.5606 102,-635.8939 102,-635.8939 102,-632.0606 105.8333,-628.2273 109.6667,-628.2273 109.6667,-628.2273 219.3333,-628.2273 219.3333,-628.2273 223.1667,-628.2273 227,-632.0606 227,-635.8939 227,-635.8939 227,-643.5606 227,-643.5606 227,-647.3939 223.1667,-651.2273 219.3333,-651.2273"/>
<text text-anchor="middle" x="164.5" y="-636.0273" font-family="Arial" font-size="14.00" fill="#c6c5fe">modules/index.js</text>
</g>
<!-- index.js&#45;&gt;modules/index.js -->
<g id="edge1" class="edge">
<title>index.js&#45;&gt;modules/index.js</title>
<path fill="none" stroke="#757575" d="M40.4468,-446.3363C61.9143,-479.8028 124.1271,-576.7885 151.413,-619.3256"/>
<polygon fill="#757575" stroke="#757575" points="148.6266,-621.4641 156.9719,-627.9915 154.5186,-617.6846 148.6266,-621.4641"/>
</g>
<!-- utils/index.js -->
<g id="node3" class="node">
<title>utils/index.js</title>
<path fill="none" stroke="#c6c5fe" d="M204.3333,-241.2273C204.3333,-241.2273 124.6667,-241.2273 124.6667,-241.2273 120.8333,-241.2273 117,-237.3939 117,-233.5606 117,-233.5606 117,-225.8939 117,-225.8939 117,-222.0606 120.8333,-218.2273 124.6667,-218.2273 124.6667,-218.2273 204.3333,-218.2273 204.3333,-218.2273 208.1667,-218.2273 212,-222.0606 212,-225.8939 212,-225.8939 212,-233.5606 212,-233.5606 212,-237.3939 208.1667,-241.2273 204.3333,-241.2273"/>
<text text-anchor="middle" x="164.5" y="-226.0273" font-family="Arial" font-size="14.00" fill="#c6c5fe">utils/index.js</text>
</g>
<!-- index.js&#45;&gt;utils/index.js -->
<g id="edge2" class="edge">
<title>index.js&#45;&gt;utils/index.js</title>
<path fill="none" stroke="#757575" d="M40.4468,-423.1182C61.9143,-389.6518 124.1271,-292.666 151.413,-250.129"/>
<polygon fill="#757575" stroke="#757575" points="154.5186,-251.77 156.9719,-241.4631 148.6266,-247.9905 154.5186,-251.77"/>
</g>
<!-- modules/account/index.js -->
<g id="node5" class="node">
<title>modules/account/index.js</title>
<path fill="none" stroke="#c6c5fe" d="M480.3333,-2311.2273C480.3333,-2311.2273 314.6667,-2311.2273 314.6667,-2311.2273 310.8333,-2311.2273 307,-2307.3939 307,-2303.5606 307,-2303.5606 307,-2295.8939 307,-2295.8939 307,-2292.0606 310.8333,-2288.2273 314.6667,-2288.2273 314.6667,-2288.2273 480.3333,-2288.2273 480.3333,-2288.2273 484.1667,-2288.2273 488,-2292.0606 488,-2295.8939 488,-2295.8939 488,-2303.5606 488,-2303.5606 488,-2307.3939 484.1667,-2311.2273 480.3333,-2311.2273"/>
<text text-anchor="middle" x="397.5" y="-2296.0273" font-family="Arial" font-size="14.00" fill="#c6c5fe">modules/account/index.js</text>
</g>
<!-- modules/index.js&#45;&gt;modules/account/index.js -->
<g id="edge44" class="edge">
<title>modules/index.js&#45;&gt;modules/account/index.js</title>
<path fill="none" stroke="#757575" d="M164.8244,-651.3172C168.8436,-793.2743 209.769,-2192.7073 263,-2259.7273 272.0483,-2271.1195 284.1943,-2279.3733 297.5004,-2285.3331"/>
<polygon fill="#757575" stroke="#757575" points="296.29,-2288.6187 306.8738,-2289.103 298.9021,-2282.1243 296.29,-2288.6187"/>
</g>
<!-- modules/action/index.js -->
<g id="node7" class="node">
<title>modules/action/index.js</title>
<path fill="none" stroke="#c6c5fe" d="M473.8333,-2250.2273C473.8333,-2250.2273 321.1667,-2250.2273 321.1667,-2250.2273 317.3333,-2250.2273 313.5,-2246.3939 313.5,-2242.5606 313.5,-2242.5606 313.5,-2234.8939 313.5,-2234.8939 313.5,-2231.0606 317.3333,-2227.2273 321.1667,-2227.2273 321.1667,-2227.2273 473.8333,-2227.2273 473.8333,-2227.2273 477.6667,-2227.2273 481.5,-2231.0606 481.5,-2234.8939 481.5,-2234.8939 481.5,-2242.5606 481.5,-2242.5606 481.5,-2246.3939 477.6667,-2250.2273 473.8333,-2250.2273"/>
<text text-anchor="middle" x="397.5" y="-2235.0273" font-family="Arial" font-size="14.00" fill="#c6c5fe">modules/action/index.js</text>
</g>
<!-- modules/index.js&#45;&gt;modules/action/index.js -->
<g id="edge45" class="edge">
<title>modules/index.js&#45;&gt;modules/action/index.js</title>
<path fill="none" stroke="#757575" d="M165.1434,-651.2396C169.7859,-732.4312 199.792,-1227.1386 263,-1624.7273 300.3091,-1859.4079 371.464,-2139.1008 391.8902,-2217.4269"/>
<polygon fill="#757575" stroke="#757575" points="388.5084,-2218.3293 394.4269,-2227.1169 395.2802,-2216.5565 388.5084,-2218.3293"/>
</g>
<!-- modules/droplet/index.js -->
<g id="node20" class="node">
<title>modules/droplet/index.js</title>
<path fill="none" stroke="#c6c5fe" d="M476.3333,-1615.2273C476.3333,-1615.2273 318.6667,-1615.2273 318.6667,-1615.2273 314.8333,-1615.2273 311,-1611.3939 311,-1607.5606 311,-1607.5606 311,-1599.8939 311,-1599.8939 311,-1596.0606 314.8333,-1592.2273 318.6667,-1592.2273 318.6667,-1592.2273 476.3333,-1592.2273 476.3333,-1592.2273 480.1667,-1592.2273 484,-1596.0606 484,-1599.8939 484,-1599.8939 484,-1607.5606 484,-1607.5606 484,-1611.3939 480.1667,-1615.2273 476.3333,-1615.2273"/>
<text text-anchor="middle" x="397.5" y="-1600.0273" font-family="Arial" font-size="14.00" fill="#c6c5fe">modules/droplet/index.js</text>
</g>
<!-- modules/index.js&#45;&gt;modules/droplet/index.js -->
<g id="edge46" class="edge">
<title>modules/index.js&#45;&gt;modules/droplet/index.js</title>
<path fill="none" stroke="#757575" d="M167.3619,-651.568C191.4686,-751.3054 360.5107,-1450.6899 392.339,-1582.3745"/>
<polygon fill="#757575" stroke="#757575" points="388.9402,-1583.2107 394.6917,-1592.1085 395.7443,-1581.5661 388.9402,-1583.2107"/>
</g>
<!-- modules/image/index.js -->
<g id="node44" class="node">
<title>modules/image/index.js</title>
<path fill="none" stroke="#c6c5fe" d="M474.3333,-836.2273C474.3333,-836.2273 320.6667,-836.2273 320.6667,-836.2273 316.8333,-836.2273 313,-832.3939 313,-828.5606 313,-828.5606 313,-820.8939 313,-820.8939 313,-817.0606 316.8333,-813.2273 320.6667,-813.2273 320.6667,-813.2273 474.3333,-813.2273 474.3333,-813.2273 478.1667,-813.2273 482,-817.0606 482,-820.8939 482,-820.8939 482,-828.5606 482,-828.5606 482,-832.3939 478.1667,-836.2273 474.3333,-836.2273"/>
<text text-anchor="middle" x="397.5" y="-821.0273" font-family="Arial" font-size="14.00" fill="#c6c5fe">modules/image/index.js</text>
</g>
<!-- modules/index.js&#45;&gt;modules/image/index.js -->
<g id="edge47" class="edge">
<title>modules/index.js&#45;&gt;modules/image/index.js</title>
<path fill="none" stroke="#757575" d="M179.0752,-651.2999C218.5488,-682.6415 327.7313,-769.3315 375.0958,-806.9386"/>
<polygon fill="#757575" stroke="#757575" points="372.9223,-809.6819 382.9303,-813.1591 377.2751,-804.1998 372.9223,-809.6819"/>
</g>
<!-- modules/region/index.js -->
<g id="node49" class="node">
<title>modules/region/index.js</title>
<path fill="none" stroke="#c6c5fe" d="M474.8333,-651.2273C474.8333,-651.2273 320.1667,-651.2273 320.1667,-651.2273 316.3333,-651.2273 312.5,-647.3939 312.5,-643.5606 312.5,-643.5606 312.5,-635.8939 312.5,-635.8939 312.5,-632.0606 316.3333,-628.2273 320.1667,-628.2273 320.1667,-628.2273 474.8333,-628.2273 474.8333,-628.2273 478.6667,-628.2273 482.5,-632.0606 482.5,-635.8939 482.5,-635.8939 482.5,-643.5606 482.5,-643.5606 482.5,-647.3939 478.6667,-651.2273 474.8333,-651.2273"/>
<text text-anchor="middle" x="397.5" y="-636.0273" font-family="Arial" font-size="14.00" fill="#c6c5fe">modules/region/index.js</text>
</g>
<!-- modules/index.js&#45;&gt;modules/region/index.js -->
<g id="edge48" class="edge">
<title>modules/index.js&#45;&gt;modules/region/index.js</title>
<path fill="none" stroke="#757575" d="M227.2462,-639.7273C250.2285,-639.7273 276.7854,-639.7273 301.9873,-639.7273"/>
<polygon fill="#757575" stroke="#757575" points="302.314,-643.2274 312.314,-639.7273 302.3139,-636.2274 302.314,-643.2274"/>
</g>
<!-- modules/size/index.js -->
<g id="node50" class="node">
<title>modules/size/index.js</title>
<path fill="none" stroke="#c6c5fe" d="M467.3333,-610.2273C467.3333,-610.2273 327.6667,-610.2273 327.6667,-610.2273 323.8333,-610.2273 320,-606.3939 320,-602.5606 320,-602.5606 320,-594.8939 320,-594.8939 320,-591.0606 323.8333,-587.2273 327.6667,-587.2273 327.6667,-587.2273 467.3333,-587.2273 467.3333,-587.2273 471.1667,-587.2273 475,-591.0606 475,-594.8939 475,-594.8939 475,-602.5606 475,-602.5606 475,-606.3939 471.1667,-610.2273 467.3333,-610.2273"/>
<text text-anchor="middle" x="397.5" y="-595.0273" font-family="Arial" font-size="14.00" fill="#c6c5fe">modules/size/index.js</text>
</g>
<!-- modules/index.js&#45;&gt;modules/size/index.js -->
<g id="edge49" class="edge">
<title>modules/index.js&#45;&gt;modules/size/index.js</title>
<path fill="none" stroke="#757575" d="M219.1212,-628.1767C233.3789,-625.288 248.7446,-622.286 263,-619.7273 278.0748,-617.0214 294.1363,-614.3398 309.7191,-611.8436"/>
<polygon fill="#757575" stroke="#757575" points="310.5473,-615.256 319.8749,-610.2315 309.4498,-608.3426 310.5473,-615.256"/>
</g>
<!-- modules/snapshot/index.js -->
<g id="node51" class="node">
<title>modules/snapshot/index.js</title>
<path fill="none" stroke="#c6c5fe" d="M484.3333,-548.2273C484.3333,-548.2273 310.6667,-548.2273 310.6667,-548.2273 306.8333,-548.2273 303,-544.3939 303,-540.5606 303,-540.5606 303,-532.8939 303,-532.8939 303,-529.0606 306.8333,-525.2273 310.6667,-525.2273 310.6667,-525.2273 484.3333,-525.2273 484.3333,-525.2273 488.1667,-525.2273 492,-529.0606 492,-532.8939 492,-532.8939 492,-540.5606 492,-540.5606 492,-544.3939 488.1667,-548.2273 484.3333,-548.2273"/>
<text text-anchor="middle" x="397.5" y="-533.0273" font-family="Arial" font-size="14.00" fill="#c6c5fe">modules/snapshot/index.js</text>
</g>
<!-- modules/index.js&#45;&gt;modules/snapshot/index.js -->
<g id="edge50" class="edge">
<title>modules/index.js&#45;&gt;modules/snapshot/index.js</title>
<path fill="none" stroke="#757575" d="M180.5199,-628.037C199.4487,-614.6525 232.2641,-592.7705 263,-578.7273 287.6404,-567.4691 316.1317,-558.0916 340.5313,-551.0746"/>
<polygon fill="#757575" stroke="#757575" points="341.6836,-554.3864 350.3626,-548.3099 339.7885,-547.6478 341.6836,-554.3864"/>
</g>
<!-- modules/volume/index.js -->
<g id="node52" class="node">
<title>modules/volume/index.js</title>
<path fill="none" stroke="#c6c5fe" d="M477.8333,-282.2273C477.8333,-282.2273 317.1667,-282.2273 317.1667,-282.2273 313.3333,-282.2273 309.5,-278.3939 309.5,-274.5606 309.5,-274.5606 309.5,-266.8939 309.5,-266.8939 309.5,-263.0606 313.3333,-259.2273 317.1667,-259.2273 317.1667,-259.2273 477.8333,-259.2273 477.8333,-259.2273 481.6667,-259.2273 485.5,-263.0606 485.5,-266.8939 485.5,-266.8939 485.5,-274.5606 485.5,-274.5606 485.5,-278.3939 481.6667,-282.2273 477.8333,-282.2273"/>
<text text-anchor="middle" x="397.5" y="-267.0273" font-family="Arial" font-size="14.00" fill="#c6c5fe">modules/volume/index.js</text>
</g>
<!-- modules/index.js&#45;&gt;modules/volume/index.js -->
<g id="edge51" class="edge">
<title>modules/index.js&#45;&gt;modules/volume/index.js</title>
<path fill="none" stroke="#757575" d="M171.9884,-627.8679C205.5403,-574.7321 342.2484,-358.2288 384.7973,-290.8445"/>
<polygon fill="#757575" stroke="#757575" points="387.7759,-292.6826 390.1556,-282.3585 381.8571,-288.9452 387.7759,-292.6826"/>
</g>
<!-- utils/create&#45;api&#45;client/create&#45;api&#45;client.js -->
<g id="node69" class="node">
<title>utils/create&#45;api&#45;client/create&#45;api&#45;client.js</title>
<path fill="none" stroke="#cfffac" d="M524.3333,-241.2273C524.3333,-241.2273 270.6667,-241.2273 270.6667,-241.2273 266.8333,-241.2273 263,-237.3939 263,-233.5606 263,-233.5606 263,-225.8939 263,-225.8939 263,-222.0606 266.8333,-218.2273 270.6667,-218.2273 270.6667,-218.2273 524.3333,-218.2273 524.3333,-218.2273 528.1667,-218.2273 532,-222.0606 532,-225.8939 532,-225.8939 532,-233.5606 532,-233.5606 532,-237.3939 528.1667,-241.2273 524.3333,-241.2273"/>
<text text-anchor="middle" x="397.5" y="-226.0273" font-family="Arial" font-size="14.00" fill="#cfffac">utils/create&#45;api&#45;client/create&#45;api&#45;client.js</text>
</g>
<!-- utils/index.js&#45;&gt;utils/create&#45;api&#45;client/create&#45;api&#45;client.js -->
<g id="edge68" class="edge">
<title>utils/index.js&#45;&gt;utils/create&#45;api&#45;client/create&#45;api&#45;client.js</title>
<path fill="none" stroke="#757575" d="M212.2133,-229.7273C224.4371,-229.7273 238.2351,-229.7273 252.6495,-229.7273"/>
<polygon fill="#757575" stroke="#757575" points="252.7155,-233.2274 262.7155,-229.7273 252.7154,-226.2274 252.7155,-233.2274"/>
</g>
<!-- utils/create&#45;context/create&#45;context.js -->
<g id="node70" class="node">
<title>utils/create&#45;context/create&#45;context.js</title>
<path fill="none" stroke="#cfffac" d="M513.8333,-200.2273C513.8333,-200.2273 281.1667,-200.2273 281.1667,-200.2273 277.3333,-200.2273 273.5,-196.3939 273.5,-192.5606 273.5,-192.5606 273.5,-184.8939 273.5,-184.8939 273.5,-181.0606 277.3333,-177.2273 281.1667,-177.2273 281.1667,-177.2273 513.8333,-177.2273 513.8333,-177.2273 517.6667,-177.2273 521.5,-181.0606 521.5,-184.8939 521.5,-184.8939 521.5,-192.5606 521.5,-192.5606 521.5,-196.3939 517.6667,-200.2273 513.8333,-200.2273"/>
<text text-anchor="middle" x="397.5" y="-185.0273" font-family="Arial" font-size="14.00" fill="#cfffac">utils/create&#45;context/create&#45;context.js</text>
</g>
<!-- utils/index.js&#45;&gt;utils/create&#45;context/create&#45;context.js -->
<g id="edge69" class="edge">
<title>utils/index.js&#45;&gt;utils/create&#45;context/create&#45;context.js</title>
<path fill="none" stroke="#757575" d="M212.0117,-219.6261C228.1636,-216.3133 246.3401,-212.7176 263,-209.7273 278.0748,-207.0214 294.1363,-204.3398 309.7191,-201.8436"/>
<polygon fill="#757575" stroke="#757575" points="310.5473,-205.256 319.8749,-200.2315 309.4498,-198.3426 310.5473,-205.256"/>
</g>
<!-- modules/account/get&#45;account/get&#45;account.js -->
<g id="node4" class="node">
<title>modules/account/get&#45;account/get&#45;account.js</title>
<path fill="none" stroke="#cfffac" d="M998.3333,-2332.2273C998.3333,-2332.2273 711.6667,-2332.2273 711.6667,-2332.2273 707.8333,-2332.2273 704,-2328.3939 704,-2324.5606 704,-2324.5606 704,-2316.8939 704,-2316.8939 704,-2313.0606 707.8333,-2309.2273 711.6667,-2309.2273 711.6667,-2309.2273 998.3333,-2309.2273 998.3333,-2309.2273 1002.1667,-2309.2273 1006,-2313.0606 1006,-2316.8939 1006,-2316.8939 1006,-2324.5606 1006,-2324.5606 1006,-2328.3939 1002.1667,-2332.2273 998.3333,-2332.2273"/>
<text text-anchor="middle" x="855" y="-2317.0273" font-family="Arial" font-size="14.00" fill="#cfffac">modules/account/get&#45;account/get&#45;account.js</text>
</g>
<!-- modules/account/index.js&#45;&gt;modules/account/get&#45;account/get&#45;account.js -->
<g id="edge3" class="edge">
<title>modules/account/index.js&#45;&gt;modules/account/get&#45;account/get&#45;account.js</title>
<path fill="none" stroke="#757575" d="M488.1606,-2303.8888C546.7566,-2306.5784 624.6708,-2310.1548 693.6194,-2313.3196"/>
<polygon fill="#757575" stroke="#757575" points="693.5737,-2316.8211 703.7237,-2313.7834 693.8947,-2309.8285 693.5737,-2316.8211"/>
</g>
<!-- modules/action/get&#45;action/get&#45;action.js -->
<g id="node6" class="node">
<title>modules/action/get&#45;action/get&#45;action.js</title>
<path fill="none" stroke="#cfffac" d="M979.3333,-2291.2273C979.3333,-2291.2273 730.6667,-2291.2273 730.6667,-2291.2273 726.8333,-2291.2273 723,-2287.3939 723,-2283.5606 723,-2283.5606 723,-2275.8939 723,-2275.8939 723,-2272.0606 726.8333,-2268.2273 730.6667,-2268.2273 730.6667,-2268.2273 979.3333,-2268.2273 979.3333,-2268.2273 983.1667,-2268.2273 987,-2272.0606 987,-2275.8939 987,-2275.8939 987,-2283.5606 987,-2283.5606 987,-2287.3939 983.1667,-2291.2273 979.3333,-2291.2273"/>
<text text-anchor="middle" x="855" y="-2276.0273" font-family="Arial" font-size="14.00" fill="#cfffac">modules/action/get&#45;action/get&#45;action.js</text>
</g>
<!-- modules/action/index.js&#45;&gt;modules/action/get&#45;action/get&#45;action.js -->
<g id="edge4" class="edge">
<title>modules/action/index.js&#45;&gt;modules/action/get&#45;action/get&#45;action.js</title>
<path fill="none" stroke="#757575" d="M481.5231,-2249.9733C509.0469,-2253.4172 539.7975,-2257.0097 568,-2259.7273 615.0131,-2264.2574 666.4537,-2268.1697 712.6362,-2271.3025"/>
<polygon fill="#757575" stroke="#757575" points="712.5013,-2274.8012 722.7135,-2271.9794 712.9706,-2267.8169 712.5013,-2274.8012"/>
</g>
<!-- modules/action/list&#45;actions/list&#45;actions.js -->
<g id="node8" class="node">
<title>modules/action/list&#45;actions/list&#45;actions.js</title>
<path fill="none" stroke="#cfffac" d="M983.8333,-2250.2273C983.8333,-2250.2273 726.1667,-2250.2273 726.1667,-2250.2273 722.3333,-2250.2273 718.5,-2246.3939 718.5,-2242.5606 718.5,-2242.5606 718.5,-2234.8939 718.5,-2234.8939 718.5,-2231.0606 722.3333,-2227.2273 726.1667,-2227.2273 726.1667,-2227.2273 983.8333,-2227.2273 983.8333,-2227.2273 987.6667,-2227.2273 991.5,-2231.0606 991.5,-2234.8939 991.5,-2234.8939 991.5,-2242.5606 991.5,-2242.5606 991.5,-2246.3939 987.6667,-2250.2273 983.8333,-2250.2273"/>
<text text-anchor="middle" x="855" y="-2235.0273" font-family="Arial" font-size="14.00" fill="#cfffac">modules/action/list&#45;actions/list&#45;actions.js</text>
</g>
<!-- modules/action/index.js&#45;&gt;modules/action/list&#45;actions/list&#45;actions.js -->
<g id="edge5" class="edge">
<title>modules/action/index.js&#45;&gt;modules/action/list&#45;actions/list&#45;actions.js</title>
<path fill="none" stroke="#757575" d="M481.679,-2238.7273C545.0309,-2238.7273 633.4508,-2238.7273 708.3383,-2238.7273"/>
<polygon fill="#757575" stroke="#757575" points="708.3398,-2242.2274 718.3398,-2238.7273 708.3398,-2235.2274 708.3398,-2242.2274"/>
</g>
<!-- modules/droplet/change&#45;droplet&#45;kernel/change&#45;droplet&#45;kernel.js -->
<g id="node9" class="node">
<title>modules/droplet/change&#45;droplet&#45;kernel/change&#45;droplet&#45;kernel.js</title>
<path fill="none" stroke="#cfffac" d="M1059.8333,-2209.2273C1059.8333,-2209.2273 650.1667,-2209.2273 650.1667,-2209.2273 646.3333,-2209.2273 642.5,-2205.3939 642.5,-2201.5606 642.5,-2201.5606 642.5,-2193.8939 642.5,-2193.8939 642.5,-2190.0606 646.3333,-2186.2273 650.1667,-2186.2273 650.1667,-2186.2273 1059.8333,-2186.2273 1059.8333,-2186.2273 1063.6667,-2186.2273 1067.5,-2190.0606 1067.5,-2193.8939 1067.5,-2193.8939 1067.5,-2201.5606 1067.5,-2201.5606 1067.5,-2205.3939 1063.6667,-2209.2273 1059.8333,-2209.2273"/>
<text text-anchor="middle" x="855" y="-2194.0273" font-family="Arial" font-size="14.00" fill="#cfffac">modules/droplet/change&#45;droplet&#45;kernel/change&#45;droplet&#45;kernel.js</text>
</g>
<!-- modules/droplet/create&#45;droplet/create&#45;droplet.js -->
<g id="node10" class="node">
<title>modules/droplet/create&#45;droplet/create&#45;droplet.js</title>
<path fill="none" stroke="#cfffac" d="M1007.3333,-2168.2273C1007.3333,-2168.2273 702.6667,-2168.2273 702.6667,-2168.2273 698.8333,-2168.2273 695,-2164.3939 695,-2160.5606 695,-2160.5606 695,-2152.8939 695,-2152.8939 695,-2149.0606 698.8333,-2145.2273 702.6667,-2145.2273 702.6667,-2145.2273 1007.3333,-2145.2273 1007.3333,-2145.2273 1011.1667,-2145.2273 1015,-2149.0606 1015,-2152.8939 1015,-2152.8939 1015,-2160.5606 1015,-2160.5606 1015,-2164.3939 1011.1667,-2168.2273 1007.3333,-2168.2273"/>
<text text-anchor="middle" x="855" y="-2153.0273" font-family="Arial" font-size="14.00" fill="#cfffac">modules/droplet/create&#45;droplet/create&#45;droplet.js</text>
</g>
<!-- modules/droplet/create&#45;droplets/create&#45;droplets.js -->
<g id="node11" class="node">
<title>modules/droplet/create&#45;droplets/create&#45;droplets.js</title>
<path fill="none" stroke="#cfffac" d="M1014.8333,-2127.2273C1014.8333,-2127.2273 695.1667,-2127.2273 695.1667,-2127.2273 691.3333,-2127.2273 687.5,-2123.3939 687.5,-2119.5606 687.5,-2119.5606 687.5,-2111.8939 687.5,-2111.8939 687.5,-2108.0606 691.3333,-2104.2273 695.1667,-2104.2273 695.1667,-2104.2273 1014.8333,-2104.2273 1014.8333,-2104.2273 1018.6667,-2104.2273 1022.5,-2108.0606 1022.5,-2111.8939 1022.5,-2111.8939 1022.5,-2119.5606 1022.5,-2119.5606 1022.5,-2123.3939 1018.6667,-2127.2273 1014.8333,-2127.2273"/>
<text text-anchor="middle" x="855" y="-2112.0273" font-family="Arial" font-size="14.00" fill="#cfffac">modules/droplet/create&#45;droplets/create&#45;droplets.js</text>
</g>
<!-- modules/droplet/delete&#45;droplet/delete&#45;droplet.js -->
<g id="node12" class="node">
<title>modules/droplet/delete&#45;droplet/delete&#45;droplet.js</title>
<path fill="none" stroke="#cfffac" d="M1006.8333,-2086.2273C1006.8333,-2086.2273 703.1667,-2086.2273 703.1667,-2086.2273 699.3333,-2086.2273 695.5,-2082.3939 695.5,-2078.5606 695.5,-2078.5606 695.5,-2070.8939 695.5,-2070.8939 695.5,-2067.0606 699.3333,-2063.2273 703.1667,-2063.2273 703.1667,-2063.2273 1006.8333,-2063.2273 1006.8333,-2063.2273 1010.6667,-2063.2273 1014.5,-2067.0606 1014.5,-2070.8939 1014.5,-2070.8939 1014.5,-2078.5606 1014.5,-2078.5606 1014.5,-2082.3939 1010.6667,-2086.2273 1006.8333,-2086.2273"/>
<text text-anchor="middle" x="855" y="-2071.0273" font-family="Arial" font-size="14.00" fill="#cfffac">modules/droplet/delete&#45;droplet/delete&#45;droplet.js</text>
</g>
<!-- modules/droplet/disable&#45;droplet&#45;backups/disable&#45;droplet&#45;backups.js -->
<g id="node13" class="node">
<title>modules/droplet/disable&#45;droplet&#45;backups/disable&#45;droplet&#45;backups.js</title>
<path fill="none" stroke="#cfffac" d="M1073.3333,-2045.2273C1073.3333,-2045.2273 636.6667,-2045.2273 636.6667,-2045.2273 632.8333,-2045.2273 629,-2041.3939 629,-2037.5606 629,-2037.5606 629,-2029.8939 629,-2029.8939 629,-2026.0606 632.8333,-2022.2273 636.6667,-2022.2273 636.6667,-2022.2273 1073.3333,-2022.2273 1073.3333,-2022.2273 1077.1667,-2022.2273 1081,-2026.0606 1081,-2029.8939 1081,-2029.8939 1081,-2037.5606 1081,-2037.5606 1081,-2041.3939 1077.1667,-2045.2273 1073.3333,-2045.2273"/>
<text text-anchor="middle" x="855" y="-2030.0273" font-family="Arial" font-size="14.00" fill="#cfffac">modules/droplet/disable&#45;droplet&#45;backups/disable&#45;droplet&#45;backups.js</text>
</g>
<!-- modules/droplet/do&#45;action&#45;by&#45;droplet&#45;tag/do&#45;action&#45;by&#45;droplet&#45;tag.js -->
<g id="node14" class="node">
<title>modules/droplet/do&#45;action&#45;by&#45;droplet&#45;tag/do&#45;action&#45;by&#45;droplet&#45;tag.js</title>
<path fill="none" stroke="#cfffac" d="M1071.8333,-2004.2273C1071.8333,-2004.2273 638.1667,-2004.2273 638.1667,-2004.2273 634.3333,-2004.2273 630.5,-2000.3939 630.5,-1996.5606 630.5,-1996.5606 630.5,-1988.8939 630.5,-1988.8939 630.5,-1985.0606 634.3333,-1981.2273 638.1667,-1981.2273 638.1667,-1981.2273 1071.8333,-1981.2273 1071.8333,-1981.2273 1075.6667,-1981.2273 1079.5,-1985.0606 1079.5,-1988.8939 1079.5,-1988.8939 1079.5,-1996.5606 1079.5,-1996.5606 1079.5,-2000.3939 1075.6667,-2004.2273 1071.8333,-2004.2273"/>
<text text-anchor="middle" x="855" y="-1989.0273" font-family="Arial" font-size="14.00" fill="#cfffac">modules/droplet/do&#45;action&#45;by&#45;droplet&#45;tag/do&#45;action&#45;by&#45;droplet&#45;tag.js</text>
</g>
<!-- modules/droplet/enable&#45;droplet&#45;backups/enable&#45;droplet&#45;backups.js -->
<g id="node15" class="node">
<title>modules/droplet/enable&#45;droplet&#45;backups/enable&#45;droplet&#45;backups.js</title>
<path fill="none" stroke="#cfffac" d="M1071.3333,-1963.2273C1071.3333,-1963.2273 638.6667,-1963.2273 638.6667,-1963.2273 634.8333,-1963.2273 631,-1959.3939 631,-1955.5606 631,-1955.5606 631,-1947.8939 631,-1947.8939 631,-1944.0606 634.8333,-1940.2273 638.6667,-1940.2273 638.6667,-1940.2273 1071.3333,-1940.2273 1071.3333,-1940.2273 1075.1667,-1940.2273 1079,-1944.0606 1079,-1947.8939 1079,-1947.8939 1079,-1955.5606 1079,-1955.5606 1079,-1959.3939 1075.1667,-1963.2273 1071.3333,-1963.2273"/>
<text text-anchor="middle" x="855" y="-1948.0273" font-family="Arial" font-size="14.00" fill="#cfffac">modules/droplet/enable&#45;droplet&#45;backups/enable&#45;droplet&#45;backups.js</text>
</g>
<!-- modules/droplet/enable&#45;droplet&#45;ipv6/enable&#45;droplet&#45;ipv6.js -->
<g id="node16" class="node">
<title>modules/droplet/enable&#45;droplet&#45;ipv6/enable&#45;droplet&#45;ipv6.js</title>
<path fill="none" stroke="#cfffac" d="M1042.8333,-1922.2273C1042.8333,-1922.2273 667.1667,-1922.2273 667.1667,-1922.2273 663.3333,-1922.2273 659.5,-1918.3939 659.5,-1914.5606 659.5,-1914.5606 659.5,-1906.8939 659.5,-1906.8939 659.5,-1903.0606 663.3333,-1899.2273 667.1667,-1899.2273 667.1667,-1899.2273 1042.8333,-1899.2273 1042.8333,-1899.2273 1046.6667,-1899.2273 1050.5,-1903.0606 1050.5,-1906.8939 1050.5,-1906.8939 1050.5,-1914.5606 1050.5,-1914.5606 1050.5,-1918.3939 1046.6667,-1922.2273 1042.8333,-1922.2273"/>
<text text-anchor="middle" x="855" y="-1907.0273" font-family="Arial" font-size="14.00" fill="#cfffac">modules/droplet/enable&#45;droplet&#45;ipv6/enable&#45;droplet&#45;ipv6.js</text>
</g>
<!-- modules/droplet/enable&#45;droplet&#45;private&#45;networking/enable&#45;droplet&#45;private&#45;networking.js -->
<g id="node17" class="node">
<title>modules/droplet/enable&#45;droplet&#45;private&#45;networking/enable&#45;droplet&#45;private&#45;networking.js</title>
<path fill="none" stroke="#cfffac" d="M1134.3333,-1881.2273C1134.3333,-1881.2273 575.6667,-1881.2273 575.6667,-1881.2273 571.8333,-1881.2273 568,-1877.3939 568,-1873.5606 568,-1873.5606 568,-1865.8939 568,-1865.8939 568,-1862.0606 571.8333,-1858.2273 575.6667,-1858.2273 575.6667,-1858.2273 1134.3333,-1858.2273 1134.3333,-1858.2273 1138.1667,-1858.2273 1142,-1862.0606 1142,-1865.8939 1142,-1865.8939 1142,-1873.5606 1142,-1873.5606 1142,-1877.3939 1138.1667,-1881.2273 1134.3333,-1881.2273"/>
<text text-anchor="middle" x="855" y="-1866.0273" font-family="Arial" font-size="14.00" fill="#cfffac">modules/droplet/enable&#45;droplet&#45;private&#45;networking/enable&#45;droplet&#45;private&#45;networking.js</text>
</g>
<!-- modules/droplet/get&#45;droplet&#45;action/get&#45;droplet&#45;action.js -->
<g id="node18" class="node">
<title>modules/droplet/get&#45;droplet&#45;action/get&#45;droplet&#45;action.js</title>
<path fill="none" stroke="#cfffac" d="M1030.8333,-1840.2273C1030.8333,-1840.2273 679.1667,-1840.2273 679.1667,-1840.2273 675.3333,-1840.2273 671.5,-1836.3939 671.5,-1832.5606 671.5,-1832.5606 671.5,-1824.8939 671.5,-1824.8939 671.5,-1821.0606 675.3333,-1817.2273 679.1667,-1817.2273 679.1667,-1817.2273 1030.8333,-1817.2273 1030.8333,-1817.2273 1034.6667,-1817.2273 1038.5,-1821.0606 1038.5,-1824.8939 1038.5,-1824.8939 1038.5,-1832.5606 1038.5,-1832.5606 1038.5,-1836.3939 1034.6667,-1840.2273 1030.8333,-1840.2273"/>
<text text-anchor="middle" x="855" y="-1825.0273" font-family="Arial" font-size="14.00" fill="#cfffac">modules/droplet/get&#45;droplet&#45;action/get&#45;droplet&#45;action.js</text>
</g>
<!-- modules/droplet/get&#45;droplet/get&#45;droplet.js -->
<g id="node19" class="node">
<title>modules/droplet/get&#45;droplet/get&#45;droplet.js</title>
<path fill="none" stroke="#cfffac" d="M987.3333,-1799.2273C987.3333,-1799.2273 722.6667,-1799.2273 722.6667,-1799.2273 718.8333,-1799.2273 715,-1795.3939 715,-1791.5606 715,-1791.5606 715,-1783.8939 715,-1783.8939 715,-1780.0606 718.8333,-1776.2273 722.6667,-1776.2273 722.6667,-1776.2273 987.3333,-1776.2273 987.3333,-1776.2273 991.1667,-1776.2273 995,-1780.0606 995,-1783.8939 995,-1783.8939 995,-1791.5606 995,-1791.5606 995,-1795.3939 991.1667,-1799.2273 987.3333,-1799.2273"/>
<text text-anchor="middle" x="855" y="-1784.0273" font-family="Arial" font-size="14.00" fill="#cfffac">modules/droplet/get&#45;droplet/get&#45;droplet.js</text>
</g>
<!-- modules/droplet/index.js&#45;&gt;modules/droplet/change&#45;droplet&#45;kernel/change&#45;droplet&#45;kernel.js -->
<g id="edge6" class="edge">
<title>modules/droplet/index.js&#45;&gt;modules/droplet/change&#45;droplet&#45;kernel/change&#45;droplet&#45;kernel.js</title>
<path fill="none" stroke="#757575" d="M399.1629,-1615.4389C410.0557,-1690.3944 473.714,-2102.1321 568,-2177.7273 580.2005,-2187.5092 603.6034,-2193.7025 631.9984,-2197.4773"/>
<polygon fill="#757575" stroke="#757575" points="631.8927,-2200.9899 642.2401,-2198.7136 632.7316,-2194.0403 631.8927,-2200.9899"/>
</g>
<!-- modules/droplet/index.js&#45;&gt;modules/droplet/create&#45;droplet/create&#45;droplet.js -->
<g id="edge7" class="edge">
<title>modules/droplet/index.js&#45;&gt;modules/droplet/create&#45;droplet/create&#45;droplet.js</title>
<path fill="none" stroke="#757575" d="M399.4552,-1615.5306C411.6401,-1687.5765 479.5335,-2067.3015 568,-2136.7273 587.3393,-2151.9041 634.2407,-2158.3665 684.6484,-2160.5721"/>
<polygon fill="#757575" stroke="#757575" points="684.6434,-2164.0744 694.7695,-2160.9578 684.9101,-2157.0795 684.6434,-2164.0744"/>
</g>
<!-- modules/droplet/index.js&#45;&gt;modules/droplet/create&#45;droplets/create&#45;droplets.js -->
<g id="edge8" class="edge">
<title>modules/droplet/index.js&#45;&gt;modules/droplet/create&#45;droplets/create&#45;droplets.js</title>
<path fill="none" stroke="#757575" d="M399.7756,-1615.5145C413.2943,-1684.2442 485.2731,-2032.3945 568,-2095.7273 633.1807,-2145.6273 732.9591,-2139.6994 796.0475,-2129.0593"/>
<polygon fill="#757575" stroke="#757575" points="796.9983,-2132.4452 806.2305,-2127.2474 795.7719,-2125.5535 796.9983,-2132.4452"/>
</g>
<!-- modules/droplet/index.js&#45;&gt;modules/droplet/delete&#45;droplet/delete&#45;droplet.js -->
<g id="edge9" class="edge">
<title>modules/droplet/index.js&#45;&gt;modules/droplet/delete&#45;droplet/delete&#45;droplet.js</title>
<path fill="none" stroke="#757575" d="M400.125,-1615.3821C415.0149,-1680.3983 490.9249,-1997.4056 568,-2054.7273 633.2996,-2103.2914 731.7327,-2098.1401 794.6736,-2087.9756"/>
<polygon fill="#757575" stroke="#757575" points="795.575,-2091.3724 804.8436,-2086.2398 794.3973,-2084.4722 795.575,-2091.3724"/>
</g>
<!-- modules/droplet/index.js&#45;&gt;modules/droplet/disable&#45;droplet&#45;backups/disable&#45;droplet&#45;backups.js -->
<g id="edge10" class="edge">
<title>modules/droplet/index.js&#45;&gt;modules/droplet/disable&#45;droplet&#45;backups/disable&#45;droplet&#45;backups.js</title>
<path fill="none" stroke="#757575" d="M398.1725,-1615.4797C402.0697,-1671.4294 426.8344,-1912.2781 568,-2013.7273 633.3155,-2060.6665 730.0231,-2056.466 792.7837,-2046.8904"/>
<polygon fill="#757575" stroke="#757575" points="793.6251,-2050.2999 802.9385,-2045.2491 792.5081,-2043.3896 793.6251,-2050.2999"/>
</g>
<!-- modules/droplet/index.js&#45;&gt;modules/droplet/do&#45;action&#45;by&#45;droplet&#45;tag/do&#45;action&#45;by&#45;droplet&#45;tag.js -->
<g id="edge11" class="edge">
<title>modules/droplet/index.js&#45;&gt;modules/droplet/do&#45;action&#45;by&#45;droplet&#45;tag/do&#45;action&#45;by&#45;droplet&#45;tag.js</title>
<path fill="none" stroke="#757575" d="M398.7263,-1615.3758C404.9283,-1667.7746 437.8696,-1882.9789 568,-1972.7273 633.2386,-2017.7211 727.8575,-2014.6241 790.3763,-2005.7649"/>
<polygon fill="#757575" stroke="#757575" points="791.1413,-2009.1892 800.5085,-2004.239 790.0988,-2002.2673 791.1413,-2009.1892"/>
</g>
<!-- modules/droplet/index.js&#45;&gt;modules/droplet/enable&#45;droplet&#45;backups/enable&#45;droplet&#45;backups.js -->
<g id="edge12" class="edge">
<title>modules/droplet/index.js&#45;&gt;modules/droplet/enable&#45;droplet&#45;backups/enable&#45;droplet&#45;backups.js</title>
<path fill="none" stroke="#757575" d="M399.4191,-1615.4124C408.1358,-1664.3108 448.8629,-1853.5877 568,-1931.7273 632.8831,-1974.2828 724.7085,-1972.5545 786.883,-1964.6176"/>
<polygon fill="#757575" stroke="#757575" points="787.5458,-1968.0597 796.9814,-1963.2409 786.6002,-1961.1239 787.5458,-1968.0597"/>
</g>
<!-- modules/droplet/index.js&#45;&gt;modules/droplet/enable&#45;droplet&#45;ipv6/enable&#45;droplet&#45;ipv6.js -->
<g id="edge13" class="edge">
<title>modules/droplet/index.js&#45;&gt;modules/droplet/enable&#45;droplet&#45;ipv6/enable&#45;droplet&#45;ipv6.js</title>
<path fill="none" stroke="#757575" d="M400.3044,-1615.4971C411.7683,-1660.7054 459.6917,-1824.0008 568,-1890.7273 632.0488,-1930.1864 720.0761,-1930.1376 781.6967,-1923.4106"/>
<polygon fill="#757575" stroke="#757575" points="782.2109,-1926.8743 791.7338,-1922.2306 781.3935,-1919.9222 782.2109,-1926.8743"/>
</g>
<!-- modules/droplet/index.js&#45;&gt;modules/droplet/enable&#45;droplet&#45;private&#45;networking/enable&#45;droplet&#45;private&#45;networking.js -->
<g id="edge14" class="edge">
<title>modules/droplet/index.js&#45;&gt;modules/droplet/enable&#45;droplet&#45;private&#45;networking/enable&#45;droplet&#45;private&#45;networking.js</title>
<path fill="none" stroke="#757575" d="M401.3411,-1615.2341C415.6281,-1655.985 469.9847,-1793.978 568,-1849.7273 629.87,-1884.9178 711.7924,-1887.1273 772.2703,-1882.1697"/>
<polygon fill="#757575" stroke="#757575" points="772.8984,-1885.6273 782.5432,-1881.2423 772.269,-1878.6557 772.8984,-1885.6273"/>
</g>
<!-- modules/droplet/index.js&#45;&gt;modules/droplet/get&#45;droplet&#45;action/get&#45;droplet&#45;action.js -->
<g id="edge15" class="edge">
<title>modules/droplet/index.js&#45;&gt;modules/droplet/get&#45;droplet&#45;action/get&#45;droplet&#45;action.js</title>
<path fill="none" stroke="#757575" d="M402.8871,-1615.3315C420.4847,-1651.7123 480.2389,-1763.7831 568,-1808.7273 624.0928,-1837.4535 694.6107,-1842.7216 751.7083,-1840.677"/>
<polygon fill="#757575" stroke="#757575" points="752.0046,-1844.1674 761.8418,-1840.2331 751.6982,-1837.1741 752.0046,-1844.1674"/>
</g>
<!-- modules/droplet/index.js&#45;&gt;modules/droplet/get&#45;droplet/get&#45;droplet.js -->
<g id="edge16" class="edge">
<title>modules/droplet/index.js&#45;&gt;modules/droplet/get&#45;droplet/get&#45;droplet.js</title>
<path fill="none" stroke="#757575" d="M405.3077,-1615.6611C426.7762,-1647.2955 490.2939,-1733.2334 568,-1767.7273 610.1234,-1786.4259 659.1664,-1794.2435 704.6686,-1796.5947"/>
<polygon fill="#757575" stroke="#757575" points="704.786,-1800.1029 714.9274,-1797.0367 705.0873,-1793.1094 704.786,-1800.1029"/>
</g>
<!-- modules/droplet/list&#45;droplet&#45;actions/list&#45;droplet&#45;actions.js -->
<g id="node21" class="node">
<title>modules/droplet/list&#45;droplet&#45;actions/list&#45;droplet&#45;actions.js</title>
<path fill="none" stroke="#cfffac" d="M1035.3333,-1758.2273C1035.3333,-1758.2273 674.6667,-1758.2273 674.6667,-1758.2273 670.8333,-1758.2273 667,-1754.3939 667,-1750.5606 667,-1750.5606 667,-1742.8939 667,-1742.8939 667,-1739.0606 670.8333,-1735.2273 674.6667,-1735.2273 674.6667,-1735.2273 1035.3333,-1735.2273 1035.3333,-1735.2273 1039.1667,-1735.2273 1043,-1739.0606 1043,-1742.8939 1043,-1742.8939 1043,-1750.5606 1043,-1750.5606 1043,-1754.3939 1039.1667,-1758.2273 1035.3333,-1758.2273"/>
<text text-anchor="middle" x="855" y="-1743.0273" font-family="Arial" font-size="14.00" fill="#cfffac">modules/droplet/list&#45;droplet&#45;actions/list&#45;droplet&#45;actions.js</text>
</g>
<!-- modules/droplet/index.js&#45;&gt;modules/droplet/list&#45;droplet&#45;actions/list&#45;droplet&#45;actions.js -->
<g id="edge17" class="edge">
<title>modules/droplet/index.js&#45;&gt;modules/droplet/list&#45;droplet&#45;actions/list&#45;droplet&#45;actions.js</title>
<path fill="none" stroke="#757575" d="M408.5529,-1615.2431C433.9045,-1640.7851 499.3588,-1701.8841 568,-1726.7273 595.9547,-1736.8449 626.4251,-1743.3389 656.7301,-1747.3473"/>
<polygon fill="#757575" stroke="#757575" points="656.6441,-1750.8631 666.9973,-1748.6131 657.5007,-1743.9157 656.6441,-1750.8631"/>
</g>
<!-- modules/droplet/list&#45;droplet&#45;backups/list&#45;droplet&#45;backups.js -->
<g id="node22" class="node">
<title>modules/droplet/list&#45;droplet&#45;backups/list&#45;droplet&#45;backups.js</title>
<path fill="none" stroke="#cfffac" d="M1044.3333,-1717.2273C1044.3333,-1717.2273 665.6667,-1717.2273 665.6667,-1717.2273 661.8333,-1717.2273 658,-1713.3939 658,-1709.5606 658,-1709.5606 658,-1701.8939 658,-1701.8939 658,-1698.0606 661.8333,-1694.2273 665.6667,-1694.2273 665.6667,-1694.2273 1044.3333,-1694.2273 1044.3333,-1694.2273 1048.1667,-1694.2273 1052,-1698.0606 1052,-1701.8939 1052,-1701.8939 1052,-1709.5606 1052,-1709.5606 1052,-1713.3939 1048.1667,-1717.2273 1044.3333,-1717.2273"/>
<text text-anchor="middle" x="855" y="-1702.0273" font-family="Arial" font-size="14.00" fill="#cfffac">modules/droplet/list&#45;droplet&#45;backups/list&#45;droplet&#45;backups.js</text>
</g>
<!-- modules/droplet/index.js&#45;&gt;modules/droplet/list&#45;droplet&#45;backups/list&#45;droplet&#45;backups.js -->
<g id="edge18" class="edge">
<title>modules/droplet/index.js&#45;&gt;modules/droplet/list&#45;droplet&#45;backups/list&#45;droplet&#45;backups.js</title>
<path fill="none" stroke="#757575" d="M415.5255,-1615.2586C445.6973,-1633.8854 508.9428,-1670.0845 568,-1685.7273 593.4783,-1692.4758 620.6475,-1697.292 647.7279,-1700.6857"/>
<polygon fill="#757575" stroke="#757575" points="647.3539,-1704.1658 657.6976,-1701.8726 648.1815,-1697.2149 647.3539,-1704.1658"/>
</g>
<!-- modules/droplet/list&#45;droplet&#45;kernels/list&#45;droplet&#45;kernels.js -->
<g id="node23" class="node">
<title>modules/droplet/list&#45;droplet&#45;kernels/list&#45;droplet&#45;kernels.js</title>
<path fill="none" stroke="#cfffac" d="M1035.8333,-1676.2273C1035.8333,-1676.2273 674.1667,-1676.2273 674.1667,-1676.2273 670.3333,-1676.2273 666.5,-1672.3939 666.5,-1668.5606 666.5,-1668.5606 666.5,-1660.8939 666.5,-1660.8939 666.5,-1657.0606 670.3333,-1653.2273 674.1667,-1653.2273 674.1667,-1653.2273 1035.8333,-1653.2273 1035.8333,-1653.2273 1039.6667,-1653.2273 1043.5,-1657.0606 1043.5,-1660.8939 1043.5,-1660.8939 1043.5,-1668.5606 1043.5,-1668.5606 1043.5,-1672.3939 1039.6667,-1676.2273 1035.8333,-1676.2273"/>
<text text-anchor="middle" x="855" y="-1661.0273" font-family="Arial" font-size="14.00" fill="#cfffac">modules/droplet/list&#45;droplet&#45;kernels/list&#45;droplet&#45;kernels.js</text>
</g>
<!-- modules/droplet/index.js&#45;&gt;modules/droplet/list&#45;droplet&#45;kernels/list&#45;droplet&#45;kernels.js -->
<g id="edge19" class="edge">
<title>modules/droplet/index.js&#45;&gt;modules/droplet/list&#45;droplet&#45;kernels/list&#45;droplet&#45;kernels.js</title>
<path fill="none" stroke="#757575" d="M437.0891,-1615.2305C471.4089,-1624.7236 522.5643,-1637.731 568,-1644.7273 596.3851,-1649.0981 626.4981,-1652.5144 656.1307,-1655.1845"/>
<polygon fill="#757575" stroke="#757575" points="655.8914,-1658.6769 666.1584,-1656.0617 656.5015,-1651.7035 655.8914,-1658.6769"/>
</g>
<!-- modules/droplet/list&#45;droplet&#45;neighborhoods/list&#45;droplet&#45;neighborhoods.js -->
<g id="node24" class="node">
<title>modules/droplet/list&#45;droplet&#45;neighborhoods/list&#45;droplet&#45;neighborhoods.js</title>
<path fill="none" stroke="#cfffac" d="M1086.3333,-1635.2273C1086.3333,-1635.2273 623.6667,-1635.2273 623.6667,-1635.2273 619.8333,-1635.2273 616,-1631.3939 616,-1627.5606 616,-1627.5606 616,-1619.8939 616,-1619.8939 616,-1616.0606 619.8333,-1612.2273 623.6667,-1612.2273 623.6667,-1612.2273 1086.3333,-1612.2273 1086.3333,-1612.2273 1090.1667,-1612.2273 1094,-1616.0606 1094,-1619.8939 1094,-1619.8939 1094,-1627.5606 1094,-1627.5606 1094,-1631.3939 1090.1667,-1635.2273 1086.3333,-1635.2273"/>
<text text-anchor="middle" x="855" y="-1620.0273" font-family="Arial" font-size="14.00" fill="#cfffac">modules/droplet/list&#45;droplet&#45;neighborhoods/list&#45;droplet&#45;neighborhoods.js</text>
</g>
<!-- modules/droplet/index.js&#45;&gt;modules/droplet/list&#45;droplet&#45;neighborhoods/list&#45;droplet&#45;neighborhoods.js -->
<g id="edge20" class="edge">
<title>modules/droplet/index.js&#45;&gt;modules/droplet/list&#45;droplet&#45;neighborhoods/list&#45;droplet&#45;neighborhoods.js</title>
<path fill="none" stroke="#757575" d="M484.0901,-1607.5126C519.2985,-1609.0518 561.9511,-1610.9164 605.6147,-1612.8252"/>
<polygon fill="#757575" stroke="#757575" points="605.6902,-1616.3317 615.8336,-1613.2719 605.996,-1609.3384 605.6902,-1616.3317"/>
</g>
<!-- modules/droplet/list&#45;droplet&#45;neighbors/list&#45;droplet&#45;neighbors.js -->
<g id="node25" class="node">
<title>modules/droplet/list&#45;droplet&#45;neighbors/list&#45;droplet&#45;neighbors.js</title>
<path fill="none" stroke="#cfffac" d="M1053.3333,-1594.2273C1053.3333,-1594.2273 656.6667,-1594.2273 656.6667,-1594.2273 652.8333,-1594.2273 649,-1590.3939 649,-1586.5606 649,-1586.5606 649,-1578.8939 649,-1578.8939 649,-1575.0606 652.8333,-1571.2273 656.6667,-1571.2273 656.6667,-1571.2273 1053.3333,-1571.2273 1053.3333,-1571.2273 1057.1667,-1571.2273 1061,-1575.0606 1061,-1578.8939 1061,-1578.8939 1061,-1586.5606 1061,-1586.5606 1061,-1590.3939 1057.1667,-1594.2273 1053.3333,-1594.2273"/>
<text text-anchor="middle" x="855" y="-1579.0273" font-family="Arial" font-size="14.00" fill="#cfffac">modules/droplet/list&#45;droplet&#45;neighbors/list&#45;droplet&#45;neighbors.js</text>
</g>
<!-- modules/droplet/index.js&#45;&gt;modules/droplet/list&#45;droplet&#45;neighbors/list&#45;droplet&#45;neighbors.js -->
<g id="edge21" class="edge">
<title>modules/droplet/index.js&#45;&gt;modules/droplet/list&#45;droplet&#45;neighbors/list&#45;droplet&#45;neighbors.js</title>
<path fill="none" stroke="#757575" d="M484.0901,-1599.7527C528.109,-1597.7321 583.7639,-1595.1775 638.4828,-1592.6658"/>
<polygon fill="#757575" stroke="#757575" points="638.8572,-1596.1524 648.6861,-1592.1974 638.5361,-1589.1597 638.8572,-1596.1524"/>
</g>
<!-- modules/droplet/list&#45;droplet&#45;snapshots/list&#45;droplet&#45;snapshots.js -->
<g id="node26" class="node">
<title>modules/droplet/list&#45;droplet&#45;snapshots/list&#45;droplet&#45;snapshots.js</title>
<path fill="none" stroke="#cfffac" d="M1056.3333,-1553.2273C1056.3333,-1553.2273 653.6667,-1553.2273 653.6667,-1553.2273 649.8333,-1553.2273 646,-1549.3939 646,-1545.5606 646,-1545.5606 646,-1537.8939 646,-1537.8939 646,-1534.0606 649.8333,-1530.2273 653.6667,-1530.2273 653.6667,-1530.2273 1056.3333,-1530.2273 1056.3333,-1530.2273 1060.1667,-1530.2273 1064,-1534.0606 1064,-1537.8939 1064,-1537.8939 1064,-1545.5606 1064,-1545.5606 1064,-1549.3939 1060.1667,-1553.2273 1056.3333,-1553.2273"/>
<text text-anchor="middle" x="855" y="-1538.0273" font-family="Arial" font-size="14.00" fill="#cfffac">modules/droplet/list&#45;droplet&#45;snapshots/list&#45;droplet&#45;snapshots.js</text>
</g>
<!-- modules/droplet/index.js&#45;&gt;modules/droplet/list&#45;droplet&#45;snapshots/list&#45;droplet&#45;snapshots.js -->
<g id="edge22" class="edge">
<title>modules/droplet/index.js&#45;&gt;modules/droplet/list&#45;droplet&#45;snapshots/list&#45;droplet&#45;snapshots.js</title>
<path fill="none" stroke="#757575" d="M437.4367,-1592.1697C471.7576,-1582.7095 522.7269,-1569.7788 568,-1562.7273 589.823,-1559.3282 612.6675,-1556.4769 635.53,-1554.0854"/>
<polygon fill="#757575" stroke="#757575" points="636.0829,-1557.5473 645.6776,-1553.0537 635.3748,-1550.5832 636.0829,-1557.5473"/>
</g>
<!-- modules/droplet/list&#45;droplets/list&#45;droplets.js -->
<g id="node27" class="node">
<title>modules/droplet/list&#45;droplets/list&#45;droplets.js</title>
<path fill="none" stroke="#cfffac" d="M991.8333,-1512.2273C991.8333,-1512.2273 718.1667,-1512.2273 718.1667,-1512.2273 714.3333,-1512.2273 710.5,-1508.3939 710.5,-1504.5606 710.5,-1504.5606 710.5,-1496.8939 710.5,-1496.8939 710.5,-1493.0606 714.3333,-1489.2273 718.1667,-1489.2273 718.1667,-1489.2273 991.8333,-1489.2273 991.8333,-1489.2273 995.6667,-1489.2273 999.5,-1493.0606 999.5,-1496.8939 999.5,-1496.8939 999.5,-1504.5606 999.5,-1504.5606 999.5,-1508.3939 995.6667,-1512.2273 991.8333,-1512.2273"/>
<text text-anchor="middle" x="855" y="-1497.0273" font-family="Arial" font-size="14.00" fill="#cfffac">modules/droplet/list&#45;droplets/list&#45;droplets.js</text>
</g>
<!-- modules/droplet/index.js&#45;&gt;modules/droplet/list&#45;droplets/list&#45;droplets.js -->
<g id="edge23" class="edge">
<title>modules/droplet/index.js&#45;&gt;modules/droplet/list&#45;droplets/list&#45;droplets.js</title>
<path fill="none" stroke="#757575" d="M415.5316,-1592.2189C445.7122,-1573.6251 508.97,-1537.4724 568,-1521.7273 610.0965,-1510.4989 656.8171,-1504.4835 700.1264,-1501.4325"/>
<polygon fill="#757575" stroke="#757575" points="700.432,-1504.9201 710.1812,-1500.7724 699.9733,-1497.9351 700.432,-1504.9201"/>
</g>
<!-- modules/droplet/power&#45;cycle&#45;droplet/power&#45;cycle&#45;droplet.js -->
<g id="node28" class="node">
<title>modules/droplet/power&#45;cycle&#45;droplet/power&#45;cycle&#45;droplet.js</title>
<path fill="none" stroke="#cfffac" d="M1044.8333,-1471.2273C1044.8333,-1471.2273 665.1667,-1471.2273 665.1667,-1471.2273 661.3333,-1471.2273 657.5,-1467.3939 657.5,-1463.5606 657.5,-1463.5606 657.5,-1455.8939 657.5,-1455.8939 657.5,-1452.0606 661.3333,-1448.2273 665.1667,-1448.2273 665.1667,-1448.2273 1044.8333,-1448.2273 1044.8333,-1448.2273 1048.6667,-1448.2273 1052.5,-1452.0606 1052.5,-1455.8939 1052.5,-1455.8939 1052.5,-1463.5606 1052.5,-1463.5606 1052.5,-1467.3939 1048.6667,-1471.2273 1044.8333,-1471.2273"/>
<text text-anchor="middle" x="855" y="-1456.0273" font-family="Arial" font-size="14.00" fill="#cfffac">modules/droplet/power&#45;cycle&#45;droplet/power&#45;cycle&#45;droplet.js</text>
</g>
<!-- modules/droplet/index.js&#45;&gt;modules/droplet/power&#45;cycle&#45;droplet/power&#45;cycle&#45;droplet.js -->
<g id="edge24" class="edge">
<title>modules/droplet/index.js&#45;&gt;modules/droplet/power&#45;cycle&#45;droplet/power&#45;cycle&#45;droplet.js</title>
<path fill="none" stroke="#757575" d="M408.9425,-1591.8432C434.5783,-1566.112 499.7449,-1505.5646 568,-1480.7273 593.0878,-1471.5981 620.2072,-1465.3651 647.4169,-1461.2171"/>
<polygon fill="#757575" stroke="#757575" points="648.0391,-1464.6638 657.4421,-1459.7817 647.0469,-1457.7344 648.0391,-1464.6638"/>
</g>
<!-- modules/droplet/power&#45;off&#45;droplet/power&#45;off&#45;droplet.js -->
<g id="node29" class="node">
<title>modules/droplet/power&#45;off&#45;droplet/power&#45;off&#45;droplet.js</title>
<path fill="none" stroke="#cfffac" d="M1026.8333,-1430.2273C1026.8333,-1430.2273 683.1667,-1430.2273 683.1667,-1430.2273 679.3333,-1430.2273 675.5,-1426.3939 675.5,-1422.5606 675.5,-1422.5606 675.5,-1414.8939 675.5,-1414.8939 675.5,-1411.0606 679.3333,-1407.2273 683.1667,-1407.2273 683.1667,-1407.2273 1026.8333,-1407.2273 1026.8333,-1407.2273 1030.6667,-1407.2273 1034.5,-1411.0606 1034.5,-1414.8939 1034.5,-1414.8939 1034.5,-1422.5606 1034.5,-1422.5606 1034.5,-1426.3939 1030.6667,-1430.2273 1026.8333,-1430.2273"/>
<text text-anchor="middle" x="855" y="-1415.0273" font-family="Arial" font-size="14.00" fill="#cfffac">modules/droplet/power&#45;off&#45;droplet/power&#45;off&#45;droplet.js</text>
</g>
<!-- modules/droplet/index.js&#45;&gt;modules/droplet/power&#45;off&#45;droplet/power&#45;off&#45;droplet.js -->
<g id="edge25" class="edge">
<title>modules/droplet/index.js&#45;&gt;modules/droplet/power&#45;off&#45;droplet/power&#45;off&#45;droplet.js</title>
<path fill="none" stroke="#757575" d="M405.3142,-1591.8083C426.7991,-1560.2106 490.3538,-1474.3558 568,-1439.7273 598.0822,-1426.3113 631.7052,-1418.4127 665.0501,-1414.0795"/>
<polygon fill="#757575" stroke="#757575" points="665.8702,-1417.5066 675.3854,-1412.847 665.0413,-1410.5558 665.8702,-1417.5066"/>
</g>
<!-- modules/droplet/power&#45;on&#45;droplet/power&#45;on&#45;droplet.js -->
<g id="node30" class="node">
<title>modules/droplet/power&#45;on&#45;droplet/power&#45;on&#45;droplet.js</title>
<path fill="none" stroke="#cfffac" d="M1027.8333,-1389.2273C1027.8333,-1389.2273 682.1667,-1389.2273 682.1667,-1389.2273 678.3333,-1389.2273 674.5,-1385.3939 674.5,-1381.5606 674.5,-1381.5606 674.5,-1373.8939 674.5,-1373.8939 674.5,-1370.0606 678.3333,-1366.2273 682.1667,-1366.2273 682.1667,-1366.2273 1027.8333,-1366.2273 1027.8333,-1366.2273 1031.6667,-1366.2273 1035.5,-1370.0606 1035.5,-1373.8939 1035.5,-1373.8939 1035.5,-1381.5606 1035.5,-1381.5606 1035.5,-1385.3939 1031.6667,-1389.2273 1027.8333,-1389.2273"/>
<text text-anchor="middle" x="855" y="-1374.0273" font-family="Arial" font-size="14.00" fill="#cfffac">modules/droplet/power&#45;on&#45;droplet/power&#45;on&#45;droplet.js</text>
</g>
<!-- modules/droplet/index.js&#45;&gt;modules/droplet/power&#45;on&#45;droplet/power&#45;on&#45;droplet.js -->
<g id="edge26" class="edge">
<title>modules/droplet/index.js&#45;&gt;modules/droplet/power&#45;on&#45;droplet/power&#45;on&#45;droplet.js</title>
<path fill="none" stroke="#757575" d="M402.8937,-1592.1359C420.5109,-1555.7934 480.317,-1443.8235 568,-1398.7273 597.3919,-1383.6107 630.7593,-1374.9047 664.0846,-1370.3054"/>
<polygon fill="#757575" stroke="#757575" points="664.9351,-1373.7262 674.4211,-1369.0073 664.0629,-1366.7807 664.9351,-1373.7262"/>
</g>
<!-- modules/droplet/reboot&#45;droplet/reboot&#45;droplet.js -->
<g id="node31" class="node">
<title>modules/droplet/reboot&#45;droplet/reboot&#45;droplet.js</title>
<path fill="none" stroke="#cfffac" d="M1008.3333,-1348.2273C1008.3333,-1348.2273 701.6667,-1348.2273 701.6667,-1348.2273 697.8333,-1348.2273 694,-1344.3939 694,-1340.5606 694,-1340.5606 694,-1332.8939 694,-1332.8939 694,-1329.0606 697.8333,-1325.2273 701.6667,-1325.2273 701.6667,-1325.2273 1008.3333,-1325.2273 1008.3333,-1325.2273 1012.1667,-1325.2273 1016,-1329.0606 1016,-1332.8939 1016,-1332.8939 1016,-1340.5606 1016,-1340.5606 1016,-1344.3939 1012.1667,-1348.2273 1008.3333,-1348.2273"/>
<text text-anchor="middle" x="855" y="-1333.0273" font-family="Arial" font-size="14.00" fill="#cfffac">modules/droplet/reboot&#45;droplet/reboot&#45;droplet.js</text>
</g>
<!-- modules/droplet/index.js&#45;&gt;modules/droplet/reboot&#45;droplet/reboot&#45;droplet.js -->
<g id="edge27" class="edge">
<title>modules/droplet/index.js&#45;&gt;modules/droplet/reboot&#45;droplet/reboot&#45;droplet.js</title>
<path fill="none" stroke="#757575" d="M401.4474,-1591.9493C415.9086,-1550.8864 470.3071,-1413.5176 568,-1357.7273 628.6964,-1323.0649 708.7694,-1320.017 768.9117,-1324.3811"/>
<polygon fill="#757575" stroke="#757575" points="768.8923,-1327.8908 779.1419,-1325.2082 769.4565,-1320.9136 768.8923,-1327.8908"/>
</g>
<!-- modules/droplet/rebuild&#45;droplet/rebuild&#45;droplet.js -->
<g id="node32" class="node">
<title>modules/droplet/rebuild&#45;droplet/rebuild&#45;droplet.js</title>
<path fill="none" stroke="#cfffac" d="M1010.3333,-1307.2273C1010.3333,-1307.2273 699.6667,-1307.2273 699.6667,-1307.2273 695.8333,-1307.2273 692,-1303.3939 692,-1299.5606 692,-1299.5606 692,-1291.8939 692,-1291.8939 692,-1288.0606 695.8333,-1284.2273 699.6667,-1284.2273 699.6667,-1284.2273 1010.3333,-1284.2273 1010.3333,-1284.2273 1014.1667,-1284.2273 1018,-1288.0606 1018,-1291.8939 1018,-1291.8939 1018,-1299.5606 1018,-1299.5606 1018,-1303.3939 1014.1667,-1307.2273 1010.3333,-1307.2273"/>
<text text-anchor="middle" x="855" y="-1292.0273" font-family="Arial" font-size="14.00" fill="#cfffac">modules/droplet/rebuild&#45;droplet/rebuild&#45;droplet.js</text>
</g>
<!-- modules/droplet/index.js&#45;&gt;modules/droplet/rebuild&#45;droplet/rebuild&#45;droplet.js -->
<g id="edge28" class="edge">
<title>modules/droplet/index.js&#45;&gt;modules/droplet/rebuild&#45;droplet/rebuild&#45;droplet.js</title>
<path fill="none" stroke="#757575" d="M400.3115,-1591.9689C411.8014,-1546.8027 459.8075,-1383.6414 568,-1316.7273 631.1912,-1277.6452 717.8218,-1276.8845 779.3316,-1283.1102"/>
<polygon fill="#757575" stroke="#757575" points="779.0406,-1286.5992 789.3624,-1284.2095 779.8033,-1279.6409 779.0406,-1286.5992"/>
</g>
<!-- modules/droplet/rename&#45;droplet/rename&#45;droplet.js -->
<g id="node33" class="node">
<title>modules/droplet/rename&#45;droplet/rename&#45;droplet.js</title>
<path fill="none" stroke="#cfffac" d="M1016.3333,-1266.2273C1016.3333,-1266.2273 693.6667,-1266.2273 693.6667,-1266.2273 689.8333,-1266.2273 686,-1262.3939 686,-1258.5606 686,-1258.5606 686,-1250.8939 686,-1250.8939 686,-1247.0606 689.8333,-1243.2273 693.6667,-1243.2273 693.6667,-1243.2273 1016.3333,-1243.2273 1016.3333,-1243.2273 1020.1667,-1243.2273 1024,-1247.0606 1024,-1250.8939 1024,-1250.8939 1024,-1258.5606 1024,-1258.5606 1024,-1262.3939 1020.1667,-1266.2273 1016.3333,-1266.2273"/>
<text text-anchor="middle" x="855" y="-1251.0273" font-family="Arial" font-size="14.00" fill="#cfffac">modules/droplet/rename&#45;droplet/rename&#45;droplet.js</text>
</g>
<!-- modules/droplet/index.js&#45;&gt;modules/droplet/rename&#45;droplet/rename&#45;droplet.js -->
<g id="edge29" class="edge">
<title>modules/droplet/index.js&#45;&gt;modules/droplet/rename&#45;droplet/rename&#45;droplet.js</title>
<path fill="none" stroke="#757575" d="M399.4263,-1592.053C408.1718,-1543.1986 448.9985,-1354.0733 568,-1275.7273 632.2324,-1233.4391 722.9853,-1234.4134 785.1423,-1241.9128"/>
<polygon fill="#757575" stroke="#757575" points="784.8814,-1245.4081 795.2478,-1243.2196 785.7792,-1238.4659 784.8814,-1245.4081"/>
</g>
<!-- modules/droplet/reset&#45;droplet&#45;password/reset&#45;droplet&#45;password.js -->
<g id="node34" class="node">
<title>modules/droplet/reset&#45;droplet&#45;password/reset&#45;droplet&#45;password.js</title>
<path fill="none" stroke="#cfffac" d="M1066.8333,-1225.2273C1066.8333,-1225.2273 643.1667,-1225.2273 643.1667,-1225.2273 639.3333,-1225.2273 635.5,-1221.3939 635.5,-1217.5606 635.5,-1217.5606 635.5,-1209.8939 635.5,-1209.8939 635.5,-1206.0606 639.3333,-1202.2273 643.1667,-1202.2273 643.1667,-1202.2273 1066.8333,-1202.2273 1066.8333,-1202.2273 1070.6667,-1202.2273 1074.5,-1206.0606 1074.5,-1209.8939 1074.5,-1209.8939 1074.5,-1217.5606 1074.5,-1217.5606 1074.5,-1221.3939 1070.6667,-1225.2273 1066.8333,-1225.2273"/>
<text text-anchor="middle" x="855" y="-1210.0273" font-family="Arial" font-size="14.00" fill="#cfffac">modules/droplet/reset&#45;droplet&#45;password/reset&#45;droplet&#45;password.js</text>
</g>
<!-- modules/droplet/index.js&#45;&gt;modules/droplet/reset&#45;droplet&#45;password/reset&#45;droplet&#45;password.js -->
<g id="edge30" class="edge">
<title>modules/droplet/index.js&#45;&gt;modules/droplet/reset&#45;droplet&#45;password/reset&#45;droplet&#45;password.js</title>
<path fill="none" stroke="#757575" d="M398.7336,-1592.0893C404.9673,-1539.7363 438.0254,-1324.7011 568,-1234.7273 632.593,-1190.0133 726.1178,-1192.3066 788.6616,-1200.7298"/>
<polygon fill="#757575" stroke="#757575" points="788.4128,-1204.2298 798.8087,-1202.1865 789.4075,-1197.3009 788.4128,-1204.2298"/>
</g>
<!-- modules/droplet/resize&#45;droplet/resize&#45;droplet.js -->
<g id="node35" class="node">
<title>modules/droplet/resize&#45;droplet/resize&#45;droplet.js</title>
<path fill="none" stroke="#cfffac" d="M1005.8333,-1184.2273C1005.8333,-1184.2273 704.1667,-1184.2273 704.1667,-1184.2273 700.3333,-1184.2273 696.5,-1180.3939 696.5,-1176.5606 696.5,-1176.5606 696.5,-1168.8939 696.5,-1168.8939 696.5,-1165.0606 700.3333,-1161.2273 704.1667,-1161.2273 704.1667,-1161.2273 1005.8333,-1161.2273 1005.8333,-1161.2273 1009.6667,-1161.2273 1013.5,-1165.0606 1013.5,-1168.8939 1013.5,-1168.8939 1013.5,-1176.5606 1013.5,-1176.5606 1013.5,-1180.3939 1009.6667,-1184.2273 1005.8333,-1184.2273"/>
<text text-anchor="middle" x="855" y="-1169.0273" font-family="Arial" font-size="14.00" fill="#cfffac">modules/droplet/resize&#45;droplet/resize&#45;droplet.js</text>
</g>
<!-- modules/droplet/index.js&#45;&gt;modules/droplet/resize&#45;droplet/resize&#45;droplet.js -->
<g id="edge31" class="edge">
<title>modules/droplet/index.js&#45;&gt;modules/droplet/resize&#45;droplet/resize&#45;droplet.js</title>
<path fill="none" stroke="#757575" d="M398.18,-1591.9853C402.1116,-1536.0834 427.0105,-1295.421 568,-1193.7273 632.7704,-1147.0093 728.5539,-1150.4466 791.3664,-1159.6187"/>
<polygon fill="#757575" stroke="#757575" points="791.1209,-1163.1223 801.5391,-1161.1961 792.1936,-1156.205 791.1209,-1163.1223"/>
</g>
<!-- modules/droplet/restore&#45;droplet/restore&#45;droplet.js -->
<g id="node36" class="node">
<title>modules/droplet/restore&#45;droplet/restore&#45;droplet.js</title>
<path fill="none" stroke="#cfffac" d="M1011.8333,-1143.2273C1011.8333,-1143.2273 698.1667,-1143.2273 698.1667,-1143.2273 694.3333,-1143.2273 690.5,-1139.3939 690.5,-1135.5606 690.5,-1135.5606 690.5,-1127.8939 690.5,-1127.8939 690.5,-1124.0606 694.3333,-1120.2273 698.1667,-1120.2273 698.1667,-1120.2273 1011.8333,-1120.2273 1011.8333,-1120.2273 1015.6667,-1120.2273 1019.5,-1124.0606 1019.5,-1127.8939 1019.5,-1127.8939 1019.5,-1135.5606 1019.5,-1135.5606 1019.5,-1139.3939 1015.6667,-1143.2273 1011.8333,-1143.2273"/>
<text text-anchor="middle" x="855" y="-1128.0273" font-family="Arial" font-size="14.00" fill="#cfffac">modules/droplet/restore&#45;droplet/restore&#45;droplet.js</text>
</g>
<!-- modules/droplet/index.js&#45;&gt;modules/droplet/restore&#45;droplet/restore&#45;droplet.js -->
<g id="edge32" class="edge">
<title>modules/droplet/index.js&#45;&gt;modules/droplet/restore&#45;droplet/restore&#45;droplet.js</title>
<path fill="none" stroke="#757575" d="M400.1282,-1592.0767C415.0355,-1527.0839 491.0244,-1210.1825 568,-1152.7273 632.7575,-1104.3918 730.2539,-1108.7518 793.2683,-1118.5145"/>
<polygon fill="#757575" stroke="#757575" points="793.0253,-1122.0214 803.4601,-1120.1871 794.159,-1115.1138 793.0253,-1122.0214"/>
</g>
<!-- modules/droplet/shutdown&#45;droplet/shutdown&#45;droplet.js -->
<g id="node37" class="node">
<title>modules/droplet/shutdown&#45;droplet/shutdown&#45;droplet.js</title>
<path fill="none" stroke="#cfffac" d="M1029.8333,-1102.2273C1029.8333,-1102.2273 680.1667,-1102.2273 680.1667,-1102.2273 676.3333,-1102.2273 672.5,-1098.3939 672.5,-1094.5606 672.5,-1094.5606 672.5,-1086.8939 672.5,-1086.8939 672.5,-1083.0606 676.3333,-1079.2273 680.1667,-1079.2273 680.1667,-1079.2273 1029.8333,-1079.2273 1029.8333,-1079.2273 1033.6667,-1079.2273 1037.5,-1083.0606 1037.5,-1086.8939 1037.5,-1086.8939 1037.5,-1094.5606 1037.5,-1094.5606 1037.5,-1098.3939 1033.6667,-1102.2273 1029.8333,-1102.2273"/>
<text text-anchor="middle" x="855" y="-1087.0273" font-family="Arial" font-size="14.00" fill="#cfffac">modules/droplet/shutdown&#45;droplet/shutdown&#45;droplet.js</text>
</g>
<!-- modules/droplet/index.js&#45;&gt;modules/droplet/shutdown&#45;droplet/shutdown&#45;droplet.js -->
<g id="edge33" class="edge">
<title>modules/droplet/index.js&#45;&gt;modules/droplet/shutdown&#45;droplet/shutdown&#45;droplet.js</title>
<path fill="none" stroke="#757575" d="M399.7789,-1591.9443C413.3162,-1523.2389 485.383,-1175.2034 568,-1111.7273 584.5502,-1099.0115 620.8685,-1092.359 662.2885,-1089.1664"/>
<polygon fill="#757575" stroke="#757575" points="662.6094,-1092.6526 672.341,-1088.464 662.1213,-1085.6697 662.6094,-1092.6526"/>
</g>
<!-- modules/droplet/snapshot&#45;droplet/snapshot&#45;droplet.js -->
<g id="node38" class="node">
<title>modules/droplet/snapshot&#45;droplet/snapshot&#45;droplet.js</title>
<path fill="none" stroke="#cfffac" d="M1026.8333,-1061.2273C1026.8333,-1061.2273 683.1667,-1061.2273 683.1667,-1061.2273 679.3333,-1061.2273 675.5,-1057.3939 675.5,-1053.5606 675.5,-1053.5606 675.5,-1045.8939 675.5,-1045.8939 675.5,-1042.0606 679.3333,-1038.2273 683.1667,-1038.2273 683.1667,-1038.2273 1026.8333,-1038.2273 1026.8333,-1038.2273 1030.6667,-1038.2273 1034.5,-1042.0606 1034.5,-1045.8939 1034.5,-1045.8939 1034.5,-1053.5606 1034.5,-1053.5606 1034.5,-1057.3939 1030.6667,-1061.2273 1026.8333,-1061.2273"/>
<text text-anchor="middle" x="855" y="-1046.0273" font-family="Arial" font-size="14.00" fill="#cfffac">modules/droplet/snapshot&#45;droplet/snapshot&#45;droplet.js</text>
</g>
<!-- modules/droplet/index.js&#45;&gt;modules/droplet/snapshot&#45;droplet/snapshot&#45;droplet.js -->
<g id="edge34" class="edge">
<title>modules/droplet/index.js&#45;&gt;modules/droplet/snapshot&#45;droplet/snapshot&#45;droplet.js</title>
<path fill="none" stroke="#757575" d="M399.4585,-1591.9281C411.6632,-1519.9074 479.654,-1140.3063 568,-1070.7273 584.7952,-1057.4998 622.4369,-1050.7695 665.1096,-1047.6705"/>
<polygon fill="#757575" stroke="#757575" points="665.4161,-1051.158 675.1656,-1047.0111 664.958,-1044.173 665.4161,-1051.158"/>
</g>
<!-- modules/image/convert&#45;image&#45;to&#45;snapshot/convert&#45;image&#45;to&#45;snapshot.js -->
<g id="node39" class="node">
<title>modules/image/convert&#45;image&#45;to&#45;snapshot/convert&#45;image&#45;to&#45;snapshot.js</title>
<path fill="none" stroke="#cfffac" d="M1089.3333,-1020.2273C1089.3333,-1020.2273 620.6667,-1020.2273 620.6667,-1020.2273 616.8333,-1020.2273 613,-1016.3939 613,-1012.5606 613,-1012.5606 613,-1004.8939 613,-1004.8939 613,-1001.0606 616.8333,-997.2273 620.6667,-997.2273 620.6667,-997.2273 1089.3333,-997.2273 1089.3333,-997.2273 1093.1667,-997.2273 1097,-1001.0606 1097,-1004.8939 1097,-1004.8939 1097,-1012.5606 1097,-1012.5606 1097,-1016.3939 1093.1667,-1020.2273 1089.3333,-1020.2273"/>
<text text-anchor="middle" x="855" y="-1005.0273" font-family="Arial" font-size="14.00" fill="#cfffac">modules/image/convert&#45;image&#45;to&#45;snapshot/convert&#45;image&#45;to&#45;snapshot.js</text>
</g>
<!-- modules/image/create&#45;custom&#45;image/create&#45;custom&#45;image.js -->
<g id="node40" class="node">
<title>modules/image/create&#45;custom&#45;image/create&#45;custom&#45;image.js</title>
<path fill="none" stroke="#cfffac" d="M1052.3333,-979.2273C1052.3333,-979.2273 657.6667,-979.2273 657.6667,-979.2273 653.8333,-979.2273 650,-975.3939 650,-971.5606 650,-971.5606 650,-963.8939 650,-963.8939 650,-960.0606 653.8333,-956.2273 657.6667,-956.2273 657.6667,-956.2273 1052.3333,-956.2273 1052.3333,-956.2273 1056.1667,-956.2273 1060,-960.0606 1060,-963.8939 1060,-963.8939 1060,-971.5606 1060,-971.5606 1060,-975.3939 1056.1667,-979.2273 1052.3333,-979.2273"/>
<text text-anchor="middle" x="855" y="-964.0273" font-family="Arial" font-size="14.00" fill="#cfffac">modules/image/create&#45;custom&#45;image/create&#45;custom&#45;image.js</text>
</g>
<!-- modules/image/delete&#45;image/delete&#45;image.js -->
<g id="node41" class="node">
<title>modules/image/delete&#45;image/delete&#45;image.js</title>
<path fill="none" stroke="#cfffac" d="M999.8333,-938.2273C999.8333,-938.2273 710.1667,-938.2273 710.1667,-938.2273 706.3333,-938.2273 702.5,-934.3939 702.5,-930.5606 702.5,-930.5606 702.5,-922.8939 702.5,-922.8939 702.5,-919.0606 706.3333,-915.2273 710.1667,-915.2273 710.1667,-915.2273 999.8333,-915.2273 999.8333,-915.2273 1003.6667,-915.2273 1007.5,-919.0606 1007.5,-922.8939 1007.5,-922.8939 1007.5,-930.5606 1007.5,-930.5606 1007.5,-934.3939 1003.6667,-938.2273 999.8333,-938.2273"/>
<text text-anchor="middle" x="855" y="-923.0273" font-family="Arial" font-size="14.00" fill="#cfffac">modules/image/delete&#45;image/delete&#45;image.js</text>
</g>
<!-- modules/image/get&#45;image&#45;action/get&#45;image&#45;action.js -->
<g id="node42" class="node">
<title>modules/image/get&#45;image&#45;action/get&#45;image&#45;action.js</title>
<path fill="none" stroke="#cfffac" d="M1023.8333,-897.2273C1023.8333,-897.2273 686.1667,-897.2273 686.1667,-897.2273 682.3333,-897.2273 678.5,-893.3939 678.5,-889.5606 678.5,-889.5606 678.5,-881.8939 678.5,-881.8939 678.5,-878.0606 682.3333,-874.2273 686.1667,-874.2273 686.1667,-874.2273 1023.8333,-874.2273 1023.8333,-874.2273 1027.6667,-874.2273 1031.5,-878.0606 1031.5,-881.8939 1031.5,-881.8939 1031.5,-889.5606 1031.5,-889.5606 1031.5,-893.3939 1027.6667,-897.2273 1023.8333,-897.2273"/>
<text text-anchor="middle" x="855" y="-882.0273" font-family="Arial" font-size="14.00" fill="#cfffac">modules/image/get&#45;image&#45;action/get&#45;image&#45;action.js</text>
</g>
<!-- modules/image/get&#45;image/get&#45;image.js -->
<g id="node43" class="node">
<title>modules/image/get&#45;image/get&#45;image.js</title>
<path fill="none" stroke="#cfffac" d="M980.3333,-856.2273C980.3333,-856.2273 729.6667,-856.2273 729.6667,-856.2273 725.8333,-856.2273 722,-852.3939 722,-848.5606 722,-848.5606 722,-840.8939 722,-840.8939 722,-837.0606 725.8333,-833.2273 729.6667,-833.2273 729.6667,-833.2273 980.3333,-833.2273 980.3333,-833.2273 984.1667,-833.2273 988,-837.0606 988,-840.8939 988,-840.8939 988,-848.5606 988,-848.5606 988,-852.3939 984.1667,-856.2273 980.3333,-856.2273"/>
<text text-anchor="middle" x="855" y="-841.0273" font-family="Arial" font-size="14.00" fill="#cfffac">modules/image/get&#45;image/get&#45;image.js</text>
</g>
<!-- modules/image/index.js&#45;&gt;modules/image/convert&#45;image&#45;to&#45;snapshot/convert&#45;image&#45;to&#45;snapshot.js -->
<g id="edge35" class="edge">
<title>modules/image/index.js&#45;&gt;modules/image/convert&#45;image&#45;to&#45;snapshot/convert&#45;image&#45;to&#45;snapshot.js</title>
<path fill="none" stroke="#757575" d="M405.3077,-836.6611C426.7762,-868.2955 490.2939,-954.2334 568,-988.7273 579.2568,-993.7242 591.0079,-997.9441 603.0534,-1001.4902"/>
<polygon fill="#757575" stroke="#757575" points="602.201,-1004.8859 612.7731,-1004.1917 604.0756,-998.1416 602.201,-1004.8859"/>
</g>
<!-- modules/image/index.js&#45;&gt;modules/image/create&#45;custom&#45;image/create&#45;custom&#45;image.js -->
<g id="edge36" class="edge">
<title>modules/image/index.js&#45;&gt;modules/image/create&#45;custom&#45;image/create&#45;custom&#45;image.js</title>
<path fill="none" stroke="#757575" d="M408.5529,-836.2431C433.9045,-861.7851 499.3588,-922.8841 568,-947.7273 590.7032,-955.9442 615.0656,-961.7711 639.6512,-965.8176"/>
<polygon fill="#757575" stroke="#757575" points="639.4047,-969.321 649.8222,-967.3903 640.4745,-962.4032 639.4047,-969.321"/>
</g>
<!-- modules/image/index.js&#45;&gt;modules/image/delete&#45;image/delete&#45;image.js -->
<g id="edge37" class="edge">
<title>modules/image/index.js&#45;&gt;modules/image/delete&#45;image/delete&#45;image.js</title>
<path fill="none" stroke="#757575" d="M415.5255,-836.2586C445.6973,-854.8854 508.9428,-891.0845 568,-906.7273 607.5865,-917.2127 651.2549,-923.0332 692.33,-926.1014"/>
<polygon fill="#757575" stroke="#757575" points="692.2146,-929.6018 702.4337,-926.8053 692.7011,-922.6187 692.2146,-929.6018"/>
</g>
<!-- modules/image/index.js&#45;&gt;modules/image/get&#45;image&#45;action/get&#45;image&#45;action.js -->
<g id="edge38" class="edge">
<title>modules/image/index.js&#45;&gt;modules/image/get&#45;image&#45;action/get&#45;image&#45;action.js</title>
<path fill="none" stroke="#757575" d="M437.0891,-836.2305C471.4089,-845.7236 522.5643,-858.731 568,-865.7273 600.2109,-870.6872 634.6469,-874.418 668.081,-877.224"/>
<polygon fill="#757575" stroke="#757575" points="668.1704,-880.7428 678.4214,-878.0655 668.7382,-873.7658 668.1704,-880.7428"/>
</g>
<!-- modules/image/index.js&#45;&gt;modules/image/get&#45;image/get&#45;image.js -->
<g id="edge39" class="edge">
<title>modules/image/index.js&#45;&gt;modules/image/get&#45;image/get&#45;image.js</title>
<path fill="none" stroke="#757575" d="M482.2127,-828.4306C546.4848,-831.2403 636.3335,-835.1681 711.7184,-838.4636"/>
<polygon fill="#757575" stroke="#757575" points="711.6378,-841.9633 721.7812,-838.9035 711.9436,-834.97 711.6378,-841.9633"/>
</g>
<!-- modules/image/list&#45;images&#45;actions/list&#45;image&#45;actions.js -->
<g id="node45" class="node">
<title>modules/image/list&#45;images&#45;actions/list&#45;image&#45;actions.js</title>
<path fill="none" stroke="#cfffac" d="M1032.3333,-815.2273C1032.3333,-815.2273 677.6667,-815.2273 677.6667,-815.2273 673.8333,-815.2273 670,-811.3939 670,-807.5606 670,-807.5606 670,-799.8939 670,-799.8939 670,-796.0606 673.8333,-792.2273 677.6667,-792.2273 677.6667,-792.2273 1032.3333,-792.2273 1032.3333,-792.2273 1036.1667,-792.2273 1040,-796.0606 1040,-799.8939 1040,-799.8939 1040,-807.5606 1040,-807.5606 1040,-811.3939 1036.1667,-815.2273 1032.3333,-815.2273"/>
<text text-anchor="middle" x="855" y="-800.0273" font-family="Arial" font-size="14.00" fill="#cfffac">modules/image/list&#45;images&#45;actions/list&#45;image&#45;actions.js</text>
</g>
<!-- modules/image/index.js&#45;&gt;modules/image/list&#45;images&#45;actions/list&#45;image&#45;actions.js -->
<g id="edge40" class="edge">
<title>modules/image/index.js&#45;&gt;modules/image/list&#45;images&#45;actions/list&#45;image&#45;actions.js</title>
<path fill="none" stroke="#757575" d="M482.2127,-820.8388C532.127,-818.5477 597.4671,-815.5485 659.4785,-812.702"/>
<polygon fill="#757575" stroke="#757575" points="659.9719,-816.1832 669.8008,-812.2282 659.6508,-809.1905 659.9719,-816.1832"/>
</g>
<!-- modules/image/list&#45;images/list&#45;images.js -->
<g id="node46" class="node">
<title>modules/image/list&#45;images/list&#45;images.js</title>
<path fill="none" stroke="#cfffac" d="M984.8333,-774.2273C984.8333,-774.2273 725.1667,-774.2273 725.1667,-774.2273 721.3333,-774.2273 717.5,-770.3939 717.5,-766.5606 717.5,-766.5606 717.5,-758.8939 717.5,-758.8939 717.5,-755.0606 721.3333,-751.2273 725.1667,-751.2273 725.1667,-751.2273 984.8333,-751.2273 984.8333,-751.2273 988.6667,-751.2273 992.5,-755.0606 992.5,-758.8939 992.5,-758.8939 992.5,-766.5606 992.5,-766.5606 992.5,-770.3939 988.6667,-774.2273 984.8333,-774.2273"/>
<text text-anchor="middle" x="855" y="-759.0273" font-family="Arial" font-size="14.00" fill="#cfffac">modules/image/list&#45;images/list&#45;images.js</text>
</g>
<!-- modules/image/index.js&#45;&gt;modules/image/list&#45;images/list&#45;images.js -->
<g id="edge41" class="edge">
<title>modules/image/index.js&#45;&gt;modules/image/list&#45;images/list&#45;images.js</title>
<path fill="none" stroke="#757575" d="M437.4367,-813.1697C471.7576,-803.7095 522.7269,-790.7788 568,-783.7273 612.9756,-776.7221 662.2899,-772.0432 707.158,-768.9221"/>
<polygon fill="#757575" stroke="#757575" points="707.5165,-772.406 717.258,-768.2404 707.045,-765.4219 707.5165,-772.406"/>
</g>
<!-- modules/image/transfer&#45;image/transfer&#45;image.js -->
<g id="node47" class="node">
<title>modules/image/transfer&#45;image/transfer&#45;image.js</title>
<path fill="none" stroke="#cfffac" d="M1008.8333,-733.2273C1008.8333,-733.2273 701.1667,-733.2273 701.1667,-733.2273 697.3333,-733.2273 693.5,-729.3939 693.5,-725.5606 693.5,-725.5606 693.5,-717.8939 693.5,-717.8939 693.5,-714.0606 697.3333,-710.2273 701.1667,-710.2273 701.1667,-710.2273 1008.8333,-710.2273 1008.8333,-710.2273 1012.6667,-710.2273 1016.5,-714.0606 1016.5,-717.8939 1016.5,-717.8939 1016.5,-725.5606 1016.5,-725.5606 1016.5,-729.3939 1012.6667,-733.2273 1008.8333,-733.2273"/>
<text text-anchor="middle" x="855" y="-718.0273" font-family="Arial" font-size="14.00" fill="#cfffac">modules/image/transfer&#45;image/transfer&#45;image.js</text>
</g>
<!-- modules/image/index.js&#45;&gt;modules/image/transfer&#45;image/transfer&#45;image.js -->
<g id="edge42" class="edge">
<title>modules/image/index.js&#45;&gt;modules/image/transfer&#45;image/transfer&#45;image.js</title>
<path fill="none" stroke="#757575" d="M415.5316,-813.2189C445.7122,-794.6251 508.97,-758.4724 568,-742.7273 604.6683,-732.9467 644.845,-727.1215 683.2196,-723.7655"/>
<polygon fill="#757575" stroke="#757575" points="683.7806,-727.2312 693.4603,-722.9238 683.2072,-720.2548 683.7806,-727.2312"/>
</g>
<!-- modules/image/update&#45;image/update&#45;image.js -->
<g id="node48" class="node">
<title>modules/image/update&#45;image/update&#45;image.js</title>
<path fill="none" stroke="#cfffac" d="M1005.3333,-692.2273C1005.3333,-692.2273 704.6667,-692.2273 704.6667,-692.2273 700.8333,-692.2273 697,-688.3939 697,-684.5606 697,-684.5606 697,-676.8939 697,-676.8939 697,-673.0606 700.8333,-669.2273 704.6667,-669.2273 704.6667,-669.2273 1005.3333,-669.2273 1005.3333,-669.2273 1009.1667,-669.2273 1013,-673.0606 1013,-676.8939 1013,-676.8939 1013,-684.5606 1013,-684.5606 1013,-688.3939 1009.1667,-692.2273 1005.3333,-692.2273"/>
<text text-anchor="middle" x="855" y="-677.0273" font-family="Arial" font-size="14.00" fill="#cfffac">modules/image/update&#45;image/update&#45;image.js</text>
</g>
<!-- modules/image/index.js&#45;&gt;modules/image/update&#45;image/update&#45;image.js -->
<g id="edge43" class="edge">
<title>modules/image/index.js&#45;&gt;modules/image/update&#45;image/update&#45;image.js</title>
<path fill="none" stroke="#757575" d="M408.9425,-812.8432C434.5783,-787.112 499.7449,-726.5646 568,-701.7273 605.2209,-688.183 646.9137,-681.0137 686.7388,-677.5699"/>
<polygon fill="#757575" stroke="#757575" points="687.1266,-681.0503 696.8197,-676.773 686.5749,-674.072 687.1266,-681.0503"/>
</g>
<!-- modules/region/list&#45;regions/list&#45;regions.js -->
<g id="node53" class="node">
<title>modules/region/list&#45;regions/list&#45;regions.js</title>
<path fill="none" stroke="#cfffac" d="M986.3333,-651.2273C986.3333,-651.2273 723.6667,-651.2273 723.6667,-651.2273 719.8333,-651.2273 716,-647.3939 716,-643.5606 716,-643.5606 716,-635.8939 716,-635.8939 716,-632.0606 719.8333,-628.2273 723.6667,-628.2273 723.6667,-628.2273 986.3333,-628.2273 986.3333,-628.2273 990.1667,-628.2273 994,-632.0606 994,-635.8939 994,-635.8939 994,-643.5606 994,-643.5606 994,-647.3939 990.1667,-651.2273 986.3333,-651.2273"/>
<text text-anchor="middle" x="855" y="-636.0273" font-family="Arial" font-size="14.00" fill="#cfffac">modules/region/list&#45;regions/list&#45;regions.js</text>
</g>
<!-- modules/region/index.js&#45;&gt;modules/region/list&#45;regions/list&#45;regions.js -->
<g id="edge52" class="edge">
<title>modules/region/index.js&#45;&gt;modules/region/list&#45;regions/list&#45;regions.js</title>
<path fill="none" stroke="#757575" d="M482.7477,-639.7273C545.2148,-639.7273 631.6319,-639.7273 705.4796,-639.7273"/>
<polygon fill="#757575" stroke="#757575" points="705.8126,-643.2274 715.8126,-639.7273 705.8126,-636.2274 705.8126,-643.2274"/>
</g>
<!-- modules/size/list&#45;sizes/list&#45;sizes.js -->
<g id="node54" class="node">
<title>modules/size/list&#45;sizes/list&#45;sizes.js</title>
<path fill="none" stroke="#cfffac" d="M964.8333,-610.2273C964.8333,-610.2273 745.1667,-610.2273 745.1667,-610.2273 741.3333,-610.2273 737.5,-606.3939 737.5,-602.5606 737.5,-602.5606 737.5,-594.8939 737.5,-594.8939 737.5,-591.0606 741.3333,-587.2273 745.1667,-587.2273 745.1667,-587.2273 964.8333,-587.2273 964.8333,-587.2273 968.6667,-587.2273 972.5,-591.0606 972.5,-594.8939 972.5,-594.8939 972.5,-602.5606 972.5,-602.5606 972.5,-606.3939 968.6667,-610.2273 964.8333,-610.2273"/>
<text text-anchor="middle" x="855" y="-595.0273" font-family="Arial" font-size="14.00" fill="#cfffac">modules/size/list&#45;sizes/list&#45;sizes.js</text>
</g>
<!-- modules/size/index.js&#45;&gt;modules/size/list&#45;sizes/list&#45;sizes.js -->
<g id="edge53" class="edge">
<title>modules/size/index.js&#45;&gt;modules/size/list&#45;sizes/list&#45;sizes.js</title>
<path fill="none" stroke="#757575" d="M475.1086,-598.7273C544.0517,-598.7273 646.1487,-598.7273 727.1423,-598.7273"/>
<polygon fill="#757575" stroke="#757575" points="727.4146,-602.2274 737.4146,-598.7273 727.4145,-595.2274 727.4146,-602.2274"/>
</g>
<!-- modules/snapshot/delete&#45;snapshot/delete&#45;snapshot.js -->
<g id="node55" class="node">
<title>modules/snapshot/delete&#45;snapshot/delete&#45;snapshot.js</title>
<path fill="none" stroke="#cfffac" d="M1030.3333,-569.2273C1030.3333,-569.2273 679.6667,-569.2273 679.6667,-569.2273 675.8333,-569.2273 672,-565.3939 672,-561.5606 672,-561.5606 672,-553.8939 672,-553.8939 672,-550.0606 675.8333,-546.2273 679.6667,-546.2273 679.6667,-546.2273 1030.3333,-546.2273 1030.3333,-546.2273 1034.1667,-546.2273 1038,-550.0606 1038,-553.8939 1038,-553.8939 1038,-561.5606 1038,-561.5606 1038,-565.3939 1034.1667,-569.2273 1030.3333,-569.2273"/>
<text text-anchor="middle" x="855" y="-554.0273" font-family="Arial" font-size="14.00" fill="#cfffac">modules/snapshot/delete&#45;snapshot/delete&#45;snapshot.js</text>
</g>
<!-- modules/snapshot/index.js&#45;&gt;modules/snapshot/delete&#45;snapshot/delete&#45;snapshot.js -->
<g id="edge54" class="edge">
<title>modules/snapshot/index.js&#45;&gt;modules/snapshot/delete&#45;snapshot/delete&#45;snapshot.js</title>
<path fill="none" stroke="#757575" d="M492.0168,-541.0658C541.1145,-543.3194 602.9791,-546.1591 661.6581,-548.8526"/>
<polygon fill="#757575" stroke="#757575" points="661.6569,-552.3561 671.8069,-549.3184 661.978,-545.3635 661.6569,-552.3561"/>
</g>
<!-- modules/snapshot/get&#45;snapshot/get&#45;snapshot.js -->
<g id="node56" class="node">
<title>modules/snapshot/get&#45;snapshot/get&#45;snapshot.js</title>
<path fill="none" stroke="#cfffac" d="M1010.8333,-528.2273C1010.8333,-528.2273 699.1667,-528.2273 699.1667,-528.2273 695.3333,-528.2273 691.5,-524.3939 691.5,-520.5606 691.5,-520.5606 691.5,-512.8939 691.5,-512.8939 691.5,-509.0606 695.3333,-505.2273 699.1667,-505.2273 699.1667,-505.2273 1010.8333,-505.2273 1010.8333,-505.2273 1014.6667,-505.2273 1018.5,-509.0606 1018.5,-512.8939 1018.5,-512.8939 1018.5,-520.5606 1018.5,-520.5606 1018.5,-524.3939 1014.6667,-528.2273 1010.8333,-528.2273"/>
<text text-anchor="middle" x="855" y="-513.0273" font-family="Arial" font-size="14.00" fill="#cfffac">modules/snapshot/get&#45;snapshot/get&#45;snapshot.js</text>
</g>
<!-- modules/snapshot/index.js&#45;&gt;modules/snapshot/get&#45;snapshot/get&#45;snapshot.js -->
<g id="edge55" class="edge">
<title>modules/snapshot/index.js&#45;&gt;modules/snapshot/get&#45;snapshot/get&#45;snapshot.js</title>
<path fill="none" stroke="#757575" d="M492.0168,-532.5954C546.533,-530.2122 616.7897,-527.1408 680.9482,-524.3361"/>
<polygon fill="#757575" stroke="#757575" points="681.3519,-527.8219 691.1895,-523.8884 681.0461,-520.8286 681.3519,-527.8219"/>
</g>
<!-- modules/snapshot/list&#45;snapshots/list&#45;snapshots.js -->
<g id="node57" class="node">
<title>modules/snapshot/list&#45;snapshots/list&#45;snapshots.js</title>
<path fill="none" stroke="#cfffac" d="M1015.3333,-487.2273C1015.3333,-487.2273 694.6667,-487.2273 694.6667,-487.2273 690.8333,-487.2273 687,-483.3939 687,-479.5606 687,-479.5606 687,-471.8939 687,-471.8939 687,-468.0606 690.8333,-464.2273 694.6667,-464.2273 694.6667,-464.2273 1015.3333,-464.2273 1015.3333,-464.2273 1019.1667,-464.2273 1023,-468.0606 1023,-471.8939 1023,-471.8939 1023,-479.5606 1023,-479.5606 1023,-483.3939 1019.1667,-487.2273 1015.3333,-487.2273"/>
<text text-anchor="middle" x="855" y="-472.0273" font-family="Arial" font-size="14.00" fill="#cfffac">modules/snapshot/list&#45;snapshots/list&#45;snapshots.js</text>
</g>
<!-- modules/snapshot/index.js&#45;&gt;modules/snapshot/list&#45;snapshots/list&#45;snapshots.js -->
<g id="edge56" class="edge">
<title>modules/snapshot/index.js&#45;&gt;modules/snapshot/list&#45;snapshots/list&#45;snapshots.js</title>
<path fill="none" stroke="#757575" d="M438.4888,-525.1939C472.8064,-516.002 523.218,-503.5751 568,-496.7273 602.9846,-491.3776 640.5839,-487.3806 676.672,-484.3973"/>
<polygon fill="#757575" stroke="#757575" points="677.1198,-487.8727 686.8072,-483.5825 676.5588,-480.8952 677.1198,-487.8727"/>
</g>
<!-- modules/volume/attach&#45;volume&#45;to&#45;droplet/attach&#45;volume&#45;to&#45;droplet.js -->
<g id="node58" class="node">
<title>modules/volume/attach&#45;volume&#45;to&#45;droplet/attach&#45;volume&#45;to&#45;droplet.js</title>
<path fill="none" stroke="#cfffac" d="M1076.3333,-446.2273C1076.3333,-446.2273 633.6667,-446.2273 633.6667,-446.2273 629.8333,-446.2273 626,-442.3939 626,-438.5606 626,-438.5606 626,-430.8939 626,-430.8939 626,-427.0606 629.8333,-423.2273 633.6667,-423.2273 633.6667,-423.2273 1076.3333,-423.2273 1076.3333,-423.2273 1080.1667,-423.2273 1084,-427.0606 1084,-430.8939 1084,-430.8939 1084,-438.5606 1084,-438.5606 1084,-442.3939 1080.1667,-446.2273 1076.3333,-446.2273"/>
<text text-anchor="middle" x="855" y="-431.0273" font-family="Arial" font-size="14.00" fill="#cfffac">modules/volume/attach&#45;volume&#45;to&#45;droplet/attach&#45;volume&#45;to&#45;droplet.js</text>
</g>
<!-- modules/volume/index.js&#45;&gt;modules/volume/attach&#45;volume&#45;to&#45;droplet/attach&#45;volume&#45;to&#45;droplet.js -->
<g id="edge57" class="edge">
<title>modules/volume/index.js&#45;&gt;modules/volume/attach&#45;volume&#45;to&#45;droplet/attach&#45;volume&#45;to&#45;droplet.js</title>
<path fill="none" stroke="#757575" d="M406.6808,-282.4594C429.9766,-311.2131 494.7589,-385.0096 568,-414.7273 583.379,-420.9673 599.6009,-425.9244 616.1879,-429.8265"/>
<polygon fill="#757575" stroke="#757575" points="615.4716,-433.2526 625.9926,-432.0038 616.9892,-426.4191 615.4716,-433.2526"/>
</g>
<!-- modules/volume/create&#45;volume&#45;snapshot/create&#45;volume&#45;snapshot.js -->
<g id="node59" class="node">
<title>modules/volume/create&#45;volume&#45;snapshot/create&#45;volume&#45;snapshot.js</title>
<path fill="none" stroke="#cfffac" d="M1076.3333,-405.2273C1076.3333,-405.2273 633.6667,-405.2273 633.6667,-405.2273 629.8333,-405.2273 626,-401.3939 626,-397.5606 626,-397.5606 626,-389.8939 626,-389.8939 626,-386.0606 629.8333,-382.2273 633.6667,-382.2273 633.6667,-382.2273 1076.3333,-382.2273 1076.3333,-382.2273 1080.1667,-382.2273 1084,-386.0606 1084,-389.8939 1084,-389.8939 1084,-397.5606 1084,-397.5606 1084,-401.3939 1080.1667,-405.2273 1076.3333,-405.2273"/>
<text text-anchor="middle" x="855" y="-390.0273" font-family="Arial" font-size="14.00" fill="#cfffac">modules/volume/create&#45;volume&#45;snapshot/create&#45;volume&#45;snapshot.js</text>
</g>
<!-- modules/volume/index.js&#45;&gt;modules/volume/create&#45;volume&#45;snapshot/create&#45;volume&#45;snapshot.js -->
<g id="edge58" class="edge">
<title>modules/volume/index.js&#45;&gt;modules/volume/create&#45;volume&#45;snapshot/create&#45;volume&#45;snapshot.js</title>
<path fill="none" stroke="#757575" d="M411.4025,-282.3632C439.1029,-304.7713 504.0363,-353.4843 568,-373.7273 583.3796,-378.5946 599.4466,-382.552 615.7827,-385.7518"/>
<polygon fill="#757575" stroke="#757575" points="615.5142,-389.2618 625.9853,-387.6476 616.793,-382.3796 615.5142,-389.2618"/>
</g>
<!-- modules/volume/create&#45;volume/create&#45;volume.js -->
<g id="node60" class="node">
<title>modules/volume/create&#45;volume/create&#45;volume.js</title>
<path fill="none" stroke="#cfffac" d="M1011.8333,-364.2273C1011.8333,-364.2273 698.1667,-364.2273 698.1667,-364.2273 694.3333,-364.2273 690.5,-360.3939 690.5,-356.5606 690.5,-356.5606 690.5,-348.8939 690.5,-348.8939 690.5,-345.0606 694.3333,-341.2273 698.1667,-341.2273 698.1667,-341.2273 1011.8333,-341.2273 1011.8333,-341.2273 1015.6667,-341.2273 1019.5,-345.0606 1019.5,-348.8939 1019.5,-348.8939 1019.5,-356.5606 1019.5,-356.5606 1019.5,-360.3939 1015.6667,-364.2273 1011.8333,-364.2273"/>
<text text-anchor="middle" x="855" y="-349.0273" font-family="Arial" font-size="14.00" fill="#cfffac">modules/volume/create&#45;volume/create&#45;volume.js</text>
</g>
<!-- modules/volume/index.js&#45;&gt;modules/volume/create&#45;volume/create&#45;volume.js -->
<g id="edge59" class="edge">
<title>modules/volume/index.js&#45;&gt;modules/volume/create&#45;volume/create&#45;volume.js</title>
<path fill="none" stroke="#757575" d="M422.272,-282.2329C454.8892,-296.7944 514.3898,-321.347 568,-332.7273 603.9926,-340.3677 643.0362,-345.267 680.3944,-348.3701"/>
<polygon fill="#757575" stroke="#757575" points="680.1207,-351.8593 690.3658,-349.1597 680.6733,-344.8812 680.1207,-351.8593"/>
</g>
<!-- modules/volume/delete&#45;volume/delete&#45;volume.js -->
<g id="node61" class="node">
<title>modules/volume/delete&#45;volume/delete&#45;volume.js</title>
<path fill="none" stroke="#cfffac" d="M1011.3333,-323.2273C1011.3333,-323.2273 698.6667,-323.2273 698.6667,-323.2273 694.8333,-323.2273 691,-319.3939 691,-315.5606 691,-315.5606 691,-307.8939 691,-307.8939 691,-304.0606 694.8333,-300.2273 698.6667,-300.2273 698.6667,-300.2273 1011.3333,-300.2273 1011.3333,-300.2273 1015.1667,-300.2273 1019,-304.0606 1019,-307.8939 1019,-307.8939 1019,-315.5606 1019,-315.5606 1019,-319.3939 1015.1667,-323.2273 1011.3333,-323.2273"/>
<text text-anchor="middle" x="855" y="-308.0273" font-family="Arial" font-size="14.00" fill="#cfffac">modules/volume/delete&#45;volume/delete&#45;volume.js</text>
</g>
<!-- modules/volume/index.js&#45;&gt;modules/volume/delete&#45;volume/delete&#45;volume.js -->
<g id="edge60" class="edge">
<title>modules/volume/index.js&#45;&gt;modules/volume/delete&#45;volume/delete&#45;volume.js</title>
<path fill="none" stroke="#757575" d="M483.7026,-282.2455C510.6635,-285.6057 540.5396,-289.0812 568,-291.7273 604.3555,-295.2304 643.3587,-298.3641 680.5305,-301.0536"/>
<polygon fill="#757575" stroke="#757575" points="680.7382,-304.5774 690.9626,-301.8003 681.238,-297.5952 680.7382,-304.5774"/>
</g>
<!-- modules/volume/detach&#45;volume&#45;from&#45;droplet/detach&#45;volume&#45;from&#45;droplet.js -->
<g id="node62" class="node">
<title>modules/volume/detach&#45;volume&#45;from&#45;droplet/detach&#45;volume&#45;from&#45;droplet.js</title>
<path fill="none" stroke="#cfffac" d="M1097.3333,-282.2273C1097.3333,-282.2273 612.6667,-282.2273 612.6667,-282.2273 608.8333,-282.2273 605,-278.3939 605,-274.5606 605,-274.5606 605,-266.8939 605,-266.8939 605,-263.0606 608.8333,-259.2273 612.6667,-259.2273 612.6667,-259.2273 1097.3333,-259.2273 1097.3333,-259.2273 1101.1667,-259.2273 1105,-263.0606 1105,-266.8939 1105,-266.8939 1105,-274.5606 1105,-274.5606 1105,-278.3939 1101.1667,-282.2273 1097.3333,-282.2273"/>
<text text-anchor="middle" x="855" y="-267.0273" font-family="Arial" font-size="14.00" fill="#cfffac">modules/volume/detach&#45;volume&#45;from&#45;droplet/detach&#45;volume&#45;from&#45;droplet.js</text>
</g>
<!-- modules/volume/index.js&#45;&gt;modules/volume/detach&#45;volume&#45;from&#45;droplet/detach&#45;volume&#45;from&#45;droplet.js -->
<g id="edge61" class="edge">
<title>modules/volume/index.js&#45;&gt;modules/volume/detach&#45;volume&#45;from&#45;droplet/detach&#45;volume&#45;from&#45;droplet.js</title>
<path fill="none" stroke="#757575" d="M485.7106,-270.7273C517.5312,-270.7273 555.2757,-270.7273 594.2852,-270.7273"/>
<polygon fill="#757575" stroke="#757575" points="594.7701,-274.2274 604.77,-270.7273 594.77,-267.2274 594.7701,-274.2274"/>
</g>
<!-- modules/volume/get&#45;volume&#45;action/get&#45;volume&#45;action.js -->
<g id="node63" class="node">
<title>modules/volume/get&#45;volume&#45;action/get&#45;volume&#45;action.js</title>
<path fill="none" stroke="#cfffac" d="M1035.3333,-241.2273C1035.3333,-241.2273 674.6667,-241.2273 674.6667,-241.2273 670.8333,-241.2273 667,-237.3939 667,-233.5606 667,-233.5606 667,-225.8939 667,-225.8939 667,-222.0606 670.8333,-218.2273 674.6667,-218.2273 674.6667,-218.2273 1035.3333,-218.2273 1035.3333,-218.2273 1039.1667,-218.2273 1043,-222.0606 1043,-225.8939 1043,-225.8939 1043,-233.5606 1043,-233.5606 1043,-237.3939 1039.1667,-241.2273 1035.3333,-241.2273"/>
<text text-anchor="middle" x="855" y="-226.0273" font-family="Arial" font-size="14.00" fill="#cfffac">modules/volume/get&#45;volume&#45;action/get&#45;volume&#45;action.js</text>
</g>
<!-- modules/volume/index.js&#45;&gt;modules/volume/get&#45;volume&#45;action/get&#45;volume&#45;action.js -->
<g id="edge62" class="edge">
<title>modules/volume/index.js&#45;&gt;modules/volume/get&#45;volume&#45;action/get&#45;volume&#45;action.js</title>
<path fill="none" stroke="#757575" d="M485.9146,-259.6113C512.2969,-256.4956 541.2974,-253.2691 568,-250.7273 601.1576,-247.571 636.5099,-244.6344 670.6648,-242.0172"/>
<polygon fill="#757575" stroke="#757575" points="671.035,-245.4992 680.7411,-241.2515 670.5046,-238.5193 671.035,-245.4992"/>
</g>
<!-- modules/volume/get&#45;volume/get&#45;volume.js -->
<g id="node64" class="node">
<title>modules/volume/get&#45;volume/get&#45;volume.js</title>
<path fill="none" stroke="#cfffac" d="M991.8333,-200.2273C991.8333,-200.2273 718.1667,-200.2273 718.1667,-200.2273 714.3333,-200.2273 710.5,-196.3939 710.5,-192.5606 710.5,-192.5606 710.5,-184.8939 710.5,-184.8939 710.5,-181.0606 714.3333,-177.2273 718.1667,-177.2273 718.1667,-177.2273 991.8333,-177.2273 991.8333,-177.2273 995.6667,-177.2273 999.5,-181.0606 999.5,-184.8939 999.5,-184.8939 999.5,-192.5606 999.5,-192.5606 999.5,-196.3939 995.6667,-200.2273 991.8333,-200.2273"/>
<text text-anchor="middle" x="855" y="-185.0273" font-family="Arial" font-size="14.00" fill="#cfffac">modules/volume/get&#45;volume/get&#45;volume.js</text>
</g>
<!-- modules/volume/index.js&#45;&gt;modules/volume/get&#45;volume/get&#45;volume.js -->
<g id="edge63" class="edge">
<title>modules/volume/index.js&#45;&gt;modules/volume/get&#45;volume/get&#45;volume.js</title>
<path fill="none" stroke="#757575" d="M485.7655,-266.6385C501.8065,-263.4201 517.9039,-258.4084 532,-250.7273 553.2936,-239.1241 546.2887,-220.5286 568,-209.7273 608.2334,-189.7114 655.6248,-181.1684 700.1773,-178.5073"/>
<polygon fill="#757575" stroke="#757575" points="700.4211,-181.9995 710.2328,-178.002 700.0697,-175.0083 700.4211,-181.9995"/>
</g>
<!-- modules/volume/list&#45;volume&#45;actions/list&#45;volume&#45;actions.js -->
<g id="node65" class="node">
<title>modules/volume/list&#45;volume&#45;actions/list&#45;volume&#45;actions.js</title>
<path fill="none" stroke="#cfffac" d="M1039.8333,-159.2273C1039.8333,-159.2273 670.1667,-159.2273 670.1667,-159.2273 666.3333,-159.2273 662.5,-155.3939 662.5,-151.5606 662.5,-151.5606 662.5,-143.8939 662.5,-143.8939 662.5,-140.0606 666.3333,-136.2273 670.1667,-136.2273 670.1667,-136.2273 1039.8333,-136.2273 1039.8333,-136.2273 1043.6667,-136.2273 1047.5,-140.0606 1047.5,-143.8939 1047.5,-143.8939 1047.5,-151.5606 1047.5,-151.5606 1047.5,-155.3939 1043.6667,-159.2273 1039.8333,-159.2273"/>
<text text-anchor="middle" x="855" y="-144.0273" font-family="Arial" font-size="14.00" fill="#cfffac">modules/volume/list&#45;volume&#45;actions/list&#45;volume&#45;actions.js</text>
</g>
<!-- modules/volume/index.js&#45;&gt;modules/volume/list&#45;volume&#45;actions/list&#45;volume&#45;actions.js -->
<g id="edge64" class="edge">
<title>modules/volume/index.js&#45;&gt;modules/volume/list&#45;volume&#45;actions/list&#45;volume&#45;actions.js</title>
<path fill="none" stroke="#757575" d="M485.5196,-270.5496C502.2071,-267.1002 518.6096,-261.0039 532,-250.7273 563.8981,-226.2467 535.1711,-190.9449 568,-167.7273 633.2828,-121.5573 729.1499,-125.3104 791.8207,-134.6034"/>
<polygon fill="#757575" stroke="#757575" points="791.5454,-138.1031 801.9678,-136.1993 792.633,-131.1881 791.5454,-138.1031"/>
</g>
<!-- modules/volume/list&#45;volume&#45;snapshots/list&#45;volume&#45;snapshots.js -->
<g id="node66" class="node">
<title>modules/volume/list&#45;volume&#45;snapshots/list&#45;volume&#45;snapshots.js</title>
<path fill="none" stroke="#cfffac" d="M1060.8333,-118.2273C1060.8333,-118.2273 649.1667,-118.2273 649.1667,-118.2273 645.3333,-118.2273 641.5,-114.3939 641.5,-110.5606 641.5,-110.5606 641.5,-102.8939 641.5,-102.8939 641.5,-99.0606 645.3333,-95.2273 649.1667,-95.2273 649.1667,-95.2273 1060.8333,-95.2273 1060.8333,-95.2273 1064.6667,-95.2273 1068.5,-99.0606 1068.5,-102.8939 1068.5,-102.8939 1068.5,-110.5606 1068.5,-110.5606 1068.5,-114.3939 1064.6667,-118.2273 1060.8333,-118.2273"/>
<text text-anchor="middle" x="855" y="-103.0273" font-family="Arial" font-size="14.00" fill="#cfffac">modules/volume/list&#45;volume&#45;snapshots/list&#45;volume&#45;snapshots.js</text>
</g>
<!-- modules/volume/index.js&#45;&gt;modules/volume/list&#45;volume&#45;snapshots/list&#45;volume&#45;snapshots.js -->
<g id="edge65" class="edge">
<title>modules/volume/index.js&#45;&gt;modules/volume/list&#45;volume&#45;snapshots/list&#45;volume&#45;snapshots.js</title>
<path fill="none" stroke="#757575" d="M485.5292,-272.0577C502.5063,-268.5614 519.0203,-262.0639 532,-250.7273 575.2219,-212.9768 523.3383,-162.7629 568,-126.7273 580.0833,-116.9778 603.224,-110.7841 631.339,-106.9942"/>
<polygon fill="#757575" stroke="#757575" points="631.9807,-110.4418 641.481,-105.752 631.1297,-103.4937 631.9807,-110.4418"/>
</g>
<!-- modules/volume/list&#45;volumes/list&#45;volumes.js -->
<g id="node67" class="node">
<title>modules/volume/list&#45;volumes/list&#45;volumes.js</title>
<path fill="none" stroke="#cfffac" d="M996.3333,-77.2273C996.3333,-77.2273 713.6667,-77.2273 713.6667,-77.2273 709.8333,-77.2273 706,-73.3939 706,-69.5606 706,-69.5606 706,-61.8939 706,-61.8939 706,-58.0606 709.8333,-54.2273 713.6667,-54.2273 713.6667,-54.2273 996.3333,-54.2273 996.3333,-54.2273 1000.1667,-54.2273 1004,-58.0606 1004,-61.8939 1004,-61.8939 1004,-69.5606 1004,-69.5606 1004,-73.3939 1000.1667,-77.2273 996.3333,-77.2273"/>
<text text-anchor="middle" x="855" y="-62.0273" font-family="Arial" font-size="14.00" fill="#cfffac">modules/volume/list&#45;volumes/list&#45;volumes.js</text>
</g>
<!-- modules/volume/index.js&#45;&gt;modules/volume/list&#45;volumes/list&#45;volumes.js -->
<g id="edge66" class="edge">
<title>modules/volume/index.js&#45;&gt;modules/volume/list&#45;volumes/list&#45;volumes.js</title>
<path fill="none" stroke="#757575" d="M485.781,-272.7939C502.8417,-269.2718 519.3254,-262.5775 532,-250.7273 586.8273,-199.4658 511.2146,-134.8108 568,-85.7273 588.0545,-68.3928 640.8177,-61.9946 695.7185,-60.4439"/>
<polygon fill="#757575" stroke="#757575" points="696.0698,-63.9368 705.9872,-60.2092 695.9098,-56.9387 696.0698,-63.9368"/>
</g>
<!-- modules/volume/resize&#45;volume/resize&#45;volume.js -->
<g id="node68" class="node">
<title>modules/volume/resize&#45;volume/resize&#45;volume.js</title>
<path fill="none" stroke="#cfffac" d="M1010.3333,-36.2273C1010.3333,-36.2273 699.6667,-36.2273 699.6667,-36.2273 695.8333,-36.2273 692,-32.3939 692,-28.5606 692,-28.5606 692,-20.8939 692,-20.8939 692,-17.0606 695.8333,-13.2273 699.6667,-13.2273 699.6667,-13.2273 1010.3333,-13.2273 1010.3333,-13.2273 1014.1667,-13.2273 1018,-17.0606 1018,-20.8939 1018,-20.8939 1018,-28.5606 1018,-28.5606 1018,-32.3939 1014.1667,-36.2273 1010.3333,-36.2273"/>
<text text-anchor="middle" x="855" y="-21.0273" font-family="Arial" font-size="14.00" fill="#cfffac">modules/volume/resize&#45;volume/resize&#45;volume.js</text>
</g>
<!-- modules/volume/index.js&#45;&gt;modules/volume/resize&#45;volume/resize&#45;volume.js -->
<g id="edge67" class="edge">
<title>modules/volume/index.js&#45;&gt;modules/volume/resize&#45;volume/resize&#45;volume.js</title>
<path fill="none" stroke="#757575" d="M485.8151,-273.2658C502.9758,-269.7382 519.4914,-262.9223 532,-250.7273 598.5498,-185.8463 498.9697,-106.9627 568,-44.7273 631.6471,12.6548 738.8929,2.1053 802.7095,-11.0945"/>
<polygon fill="#757575" stroke="#757575" points="802.0515,-14.5331 812.5654,-13.2258 803.5311,-7.6912 802.0515,-14.5331"/>
</g>
</g>
</svg>
